<?xml version="1.0" encoding="UTF-8" standalone="no"?>
<!DOCTYPE svg PUBLIC "-//W3C//DTD SVG 1.1//EN" "http://www.w3.org/Graphics/SVG/1.1/DTD/svg11.dtd">
<svg width="100%" height="100%" viewBox="0 0 2255 616" version="1.1" xmlns="http://www.w3.org/2000/svg" xmlns:xlink="http://www.w3.org/1999/xlink" xml:space="preserve" xmlns:serif="http://www.serif.com/" style="fill-rule:evenodd;clip-rule:evenodd;stroke-linejoin:round;stroke-miterlimit:2;">
    <g transform="matrix(4.16667,0,0,4.16667,-4804.46,-3294.51)">
        <path d="M1165.07,809.132C1160.43,816.497 1156.88,822.783 1156.04,830.594C1155.14,839.091 1157.51,846.963 1162.64,852.738C1163.54,853.759 1164.57,854.776 1165.57,855.759C1168.2,858.345 1170.9,861.015 1171.99,864.507C1173.39,869.013 1171.95,874.152 1167.77,879.799C1166.63,881.359 1165.38,882.876 1164.17,884.344C1162.1,886.878 1159.98,889.502 1158.55,892.304C1156.68,896.009 1155.82,901.174 1158.93,904.535C1160.86,906.631 1164.27,907.825 1167.84,907.656C1172.02,907.461 1175.57,905.649 1177.83,904.167C1185.85,898.983 1190.09,889.603 1187.97,881.312C1187.15,878.174 1185.47,875.156 1183.82,872.234L1177.31,860.839C1176.96,860.23 1177.05,859.479 1177.53,859.06L1178,858.653C1177.1,858.342 1176.29,857.835 1175.69,857.155C1174.03,855.313 1174.13,852.51 1175.92,850.779C1176.42,850.293 1177.03,849.889 1177.62,849.498C1178.12,849.167 1179.14,848.491 1179.24,848.147C1179.02,847.935 1178.13,847.568 1176.78,847.54C1175.48,847.513 1174.19,847.609 1172.82,847.712C1171.1,847.841 1169.32,847.975 1167.54,847.839C1164.01,847.57 1160.09,845.818 1159.31,842.511C1158.3,838.289 1163.07,835.319 1165.94,833.551C1171.94,829.899 1177.31,825.612 1181.91,820.809C1183.68,818.975 1185.49,816.825 1185.35,814.758C1185.12,811.593 1180.23,809.426 1178.13,808.64L1177.81,808.52C1173.36,806.85 1169.5,805.401 1166.45,807.668L1165.07,809.132ZM1165.69,910.421C1162.33,910.076 1159.3,908.682 1157.29,906.49C1154.52,903.493 1152.77,897.769 1156.28,890.721C1157.82,887.691 1160.02,884.966 1162.16,882.337C1163.34,880.897 1164.57,879.409 1165.66,877.911C1168.14,874.532 1170.84,869.588 1169.46,865.17C1168.6,862.437 1166.3,860.159 1163.85,857.743C1162.81,856.719 1161.73,855.66 1160.75,854.55C1155,848.075 1152.3,839.322 1153.26,829.931C1154.13,821.542 1157.82,814.981 1162.64,807.302C1162.68,807.239 1162.72,807.181 1162.77,807.128L1164.29,805.51C1164.34,805.465 1164.38,805.423 1164.43,805.384C1168.66,802.156 1173.93,804.135 1178.57,805.876L1178.89,805.995C1184.67,808.159 1187.97,811.298 1188.21,814.84C1188.41,817.946 1186.21,820.643 1184.04,822.876C1179.29,827.84 1173.74,832.269 1167.56,836.038C1165.56,837.268 1161.44,839.836 1161.98,842.144C1162.31,843.557 1164.66,844.786 1167.45,845.001C1169.04,845.124 1170.65,845.005 1172.36,844.879C1173.73,844.778 1175.15,844.674 1176.58,844.705C1179.66,844.774 1181.73,846.039 1181.97,848.006C1182.2,849.954 1180.55,851.045 1179.23,851.923C1178.73,852.256 1178.22,852.6 1177.86,852.938C1177.13,853.651 1177,854.674 1177.58,855.319C1178.22,856.033 1179.84,856.463 1181.24,855.964C1181.85,855.747 1182.55,856.033 1182.91,856.643C1183.26,857.252 1183.17,858.005 1182.68,858.425L1180.19,860.575L1186.08,870.913C1187.81,874.005 1189.59,877.197 1190.49,880.715C1192.89,890.202 1188.16,900.834 1179.21,906.625C1176.72,908.26 1172.8,910.261 1168.15,910.485C1167.32,910.526 1166.49,910.503 1165.69,910.421" style="fill:rgb(241,90,36);fill-rule:nonzero;"/>
    </g>
    <g transform="matrix(4.16667,0,0,4.16667,-4804.46,-3565.28)">
        <path d="M1221.35,893.117C1223.32,893.313 1226.5,893.547 1228.52,893.278C1233.09,892.667 1235.86,891.54 1237.78,889.51C1238.65,888.602 1238.68,887.659 1238.55,887.026C1238.37,886.12 1237.79,885.473 1237.32,885.255C1235.24,884.281 1232.19,884.85 1228.27,886.95C1224.91,888.763 1222.67,890.75 1221.35,893.117M1227.37,895.868C1223.95,895.998 1219.52,895.412 1219.3,895.383C1218.91,895.33 1218.55,895.107 1218.34,894.778C1218.13,894.449 1218.08,894.049 1218.21,893.694C1219.57,890.087 1222.34,887.254 1226.95,884.779C1231.67,882.256 1235.56,881.668 1238.47,883.027C1239.79,883.645 1240.8,885.003 1241.11,886.569C1241.44,888.25 1240.94,889.891 1239.7,891.19C1236.74,894.325 1232.6,895.251 1228.93,895.743C1228.45,895.807 1227.92,895.847 1227.37,895.868" style="fill:rgb(241,90,36);fill-rule:nonzero;"/>
    </g>
    <g transform="matrix(4.16667,0,0,4.16667,-4804.46,-3563.9)">
        <path d="M1231.13,887.635C1230.96,887.614 1230.79,887.618 1230.61,887.649C1229.86,887.78 1229.34,888.38 1229.47,888.958C1229.6,889.536 1230.34,889.913 1231.09,889.781C1231.48,889.712 1231.82,889.519 1232.03,889.24C1232.14,889.103 1232.31,888.821 1232.23,888.473C1232.15,888.126 1231.88,887.921 1231.72,887.83C1231.54,887.727 1231.34,887.661 1231.13,887.635M1230.33,892.321C1228.68,892.116 1227.26,890.98 1226.91,889.411C1226.46,887.438 1227.86,885.523 1230.05,885.142C1231.08,884.964 1232.14,885.148 1233.03,885.663C1233.96,886.206 1234.59,887.044 1234.81,888.024C1235.02,889.003 1234.79,889.99 1234.15,890.805C1233.56,891.577 1232.66,892.103 1231.64,892.285C1231.2,892.364 1230.76,892.373 1230.33,892.321" style="fill:rgb(0,114,206);fill-rule:nonzero;"/>
    </g>
    <g transform="matrix(4.16667,0,0,4.16667,-4804.46,-3397.7)">
        <path d="M1215.38,847.268L1215.39,847.268L1215.38,847.268ZM1215.95,883.481C1216.28,883.52 1216.61,883.688 1216.85,883.971C1217.29,884.49 1217.32,885.247 1216.91,885.765C1216.36,886.46 1215.67,886.951 1215.07,887.385C1213.94,888.195 1213.72,888.455 1213.78,888.929C1213.79,888.985 1213.79,889.042 1213.79,889.1C1213.8,890.54 1214.26,891.6 1215.04,892.007C1215.39,892.187 1215.74,892.323 1216.1,892.468C1216.96,892.814 1217.95,893.206 1218.82,894.216C1220.24,895.858 1220.22,897.957 1220.2,899.81L1220.2,900.721C1220.26,905.815 1222.84,914.008 1227.34,915.494C1229.36,916.159 1233.78,916.262 1238.9,915.764C1243.47,915.324 1249.15,912.816 1251.52,908.205C1253.82,903.763 1252.64,897.734 1251.53,893.581C1250.69,890.469 1251.08,889.504 1252.18,888.046C1252.63,887.453 1253.14,886.78 1253.68,885.388C1253.78,885.116 1253.8,884.446 1253.71,884.148C1253.29,884.063 1252.7,884.058 1252.13,884.053C1251.13,884.044 1249.99,884.034 1249,883.628C1248.47,883.409 1248.12,882.897 1248.12,882.324C1248.13,881.287 1248.89,880.973 1250.56,880.286C1251.28,879.99 1252.75,879.389 1253.17,879.073C1253.34,878.683 1253.03,877.989 1252.61,877.405C1251.69,876.71 1247.78,873.63 1247.04,871.146C1246.68,869.977 1246.36,868.637 1247.06,867.549C1247.54,866.822 1248.35,866.387 1249.54,866.22C1249.78,866.186 1250.02,866.154 1250.26,866.122C1251.79,865.917 1253.24,865.724 1254.54,865.2C1255.4,864.852 1258.03,863.795 1258.28,862.708C1258.58,861.353 1257.62,859.896 1256.62,858.984L1256.4,858.785C1254.76,857.306 1251.34,854.221 1249.99,852.527C1246.29,847.918 1242.75,843.318 1240.44,837.876C1239.94,836.695 1239.5,835.591 1239.07,834.524C1237.54,830.762 1236.32,827.786 1233.58,824.299C1231.68,821.898 1229.56,821.773 1226.87,821.617C1226.37,821.588 1225.86,821.558 1225.35,821.512C1223.55,821.347 1219.36,822.167 1218.12,824.258C1215.58,828.575 1216.16,835.442 1216.61,840.956C1216.82,843.61 1217.01,845.901 1216.8,847.514C1216.18,852.54 1213.54,856.161 1210.78,860.003C1210.19,860.826 1209.53,861.571 1208.88,862.291C1207.95,863.346 1207.06,864.344 1206.5,865.489C1205.74,867.045 1205.85,869.313 1207.23,870.079C1207.86,870.434 1208.76,870.505 1209.7,870.582C1211.18,870.701 1212.86,870.836 1214.15,872.123C1215.56,873.538 1215.84,875.788 1214.92,878.3C1214.79,878.642 1214.65,878.983 1214.51,879.325C1214.07,880.411 1213.66,881.437 1213.76,882.381C1213.8,882.836 1214.18,883.376 1214.62,883.609C1214.93,883.774 1215.07,883.689 1215.12,883.661C1215.37,883.506 1215.66,883.449 1215.95,883.481M1229.33,918.678C1228.23,918.56 1227.29,918.381 1226.56,918.14C1220.56,916.157 1217.63,906.567 1217.54,900.708C1217.53,900.386 1217.54,900.057 1217.54,899.726C1217.55,898.256 1217.56,896.868 1216.85,896.05C1216.42,895.554 1215.93,895.36 1215.2,895.065C1214.81,894.911 1214.37,894.736 1213.91,894.495C1212.16,893.591 1211.14,891.627 1211.1,889.101C1210.91,887.393 1211.82,886.361 1212.75,885.612C1211.83,884.858 1211.17,883.718 1211.05,882.575C1210.87,880.928 1211.45,879.463 1211.97,878.171C1212.1,877.858 1212.23,877.546 1212.34,877.234C1212.74,876.142 1212.92,874.736 1212.26,874.068C1211.72,873.538 1210.75,873.46 1209.62,873.371C1208.47,873.279 1207.17,873.176 1205.99,872.515C1203.05,870.872 1202.66,866.883 1203.99,864.134C1204.7,862.675 1205.74,861.499 1206.74,860.362C1207.36,859.663 1207.95,859.002 1208.46,858.295C1211.12,854.578 1213.44,851.374 1213.97,847.022C1214.13,845.681 1213.95,843.516 1213.74,841.008C1213.23,835.119 1212.59,827.783 1215.52,822.762C1217.47,819.449 1222.96,818.504 1225.45,818.734C1225.91,818.777 1226.38,818.804 1226.87,818.833C1229.67,818.998 1233.15,819.206 1235.93,822.722C1238.92,826.527 1240.26,829.819 1241.8,833.626C1242.22,834.678 1242.66,835.766 1243.14,836.918C1245.29,842.011 1248.7,846.43 1252.26,850.872C1253.46,852.38 1256.89,855.471 1258.35,856.788L1258.57,856.987C1260.61,858.834 1261.53,861.186 1261.05,863.282C1260.48,865.776 1257.19,867.098 1255.62,867.735C1253.98,868.397 1252.29,868.626 1250.65,868.848C1250.41,868.879 1250.18,868.911 1249.95,868.944C1249.68,868.982 1249.52,869.03 1249.45,869.061C1249.44,869.206 1249.47,869.558 1249.72,870.367C1250.15,871.819 1253.47,874.643 1254.42,875.301C1254.53,875.378 1254.63,875.471 1254.71,875.577C1256.12,877.374 1256.38,879.213 1255.44,880.626C1255.23,880.941 1254.9,881.22 1254.45,881.495C1254.54,881.515 1254.62,881.537 1254.7,881.562C1255.34,881.756 1255.85,882.2 1256.16,882.846C1256.71,883.991 1256.54,885.579 1256.24,886.34C1255.55,888.102 1254.85,889.016 1254.34,889.685C1253.72,890.513 1253.59,890.685 1254.16,892.81C1255.37,897.408 1256.63,904.125 1253.85,909.433C1251.94,913.141 1246.93,917.746 1239.09,918.509C1235.21,918.891 1231.83,918.944 1229.33,918.678" style="fill:rgb(0,60,113);fill-rule:nonzero;"/>
    </g>
    <g transform="matrix(4.16667,0,0,4.16667,-4804.46,-3229.09)">
        <path d="M1179.13,922.608C1177.09,922.507 1175.08,921.975 1173.27,921.027C1166.86,917.686 1162.31,909.558 1162.27,901.27C1162.24,893.901 1165.59,886.666 1171.56,881.436C1176.52,877.162 1183.21,874.183 1191.42,872.58L1192.04,872.462C1194,872.09 1195.85,871.74 1197.35,870.755C1198.71,869.863 1199.79,868.092 1199.24,866.669C1199.04,866.15 1198.61,865.634 1198.16,865.089C1197.8,864.654 1197.43,864.206 1197.09,863.682C1194.51,859.622 1196.47,855.022 1198.79,851.448L1194.14,850.357C1193.55,850.216 1193.08,849.681 1193.01,849.049C1192.95,848.418 1193.29,847.847 1193.86,847.654C1195.39,847.132 1197.13,846.543 1198.18,845.395C1198.94,844.566 1199.27,843.109 1198.56,842.399C1197.96,841.795 1196.72,841.551 1195.52,841.315C1193.57,840.931 1191.15,840.454 1190.49,837.967C1189.8,835.366 1192.18,833.346 1194.89,832.697C1195.13,832.638 1195.39,832.582 1195.64,832.525C1197.09,832.204 1198.59,831.873 1199.11,830.957C1199.66,829.987 1198.79,828.529 1197.66,827.734C1196.8,827.133 1195.77,826.704 1194.69,826.249C1193.86,825.903 1193.01,825.545 1192.18,825.088C1188.24,822.924 1185.85,819.199 1183.52,815.591C1181.11,811.894 1178.82,808.397 1175.03,806.841C1173.63,806.269 1171.96,805.924 1170.34,805.59C1166.74,804.847 1163.01,804.078 1160.98,800.765C1159.49,798.328 1159.27,794.305 1163.21,790.337C1170.17,783.456 1179.91,778.636 1191.31,776.39C1202.17,774.294 1213.68,774.545 1224.5,777.086C1231.14,778.641 1230.55,785.487 1230.32,788.065C1230.23,789.191 1230.06,790.324 1229.9,791.42C1229.47,794.388 1229.07,797.193 1229.91,799.812C1230.15,800.552 1229.72,801.312 1228.96,801.509C1228.2,801.706 1227.38,801.266 1227.15,800.525C1226.1,797.308 1226.55,794.061 1226.99,790.921C1227.14,789.861 1227.3,788.766 1227.39,787.713C1227.89,781.571 1226.03,780.272 1223.94,779.782C1213.73,777.389 1202.42,777.156 1192.18,779.151C1181.3,781.308 1172.04,785.902 1165.41,792.447C1163.59,794.271 1161.99,797.222 1163.4,799.528C1164.65,801.587 1167.55,802.185 1170.61,802.817C1172.38,803.181 1174.2,803.558 1175.88,804.243C1180.61,806.185 1183.29,810.275 1185.85,814.222C1188.06,817.642 1190.12,820.868 1193.36,822.646C1194.06,823.025 1194.8,823.338 1195.59,823.669C1196.78,824.166 1198.01,824.68 1199.14,825.47C1202.12,827.559 1202.59,830.638 1201.53,832.478C1200.45,834.368 1198.21,834.866 1196.41,835.268C1196.17,835.322 1195.93,835.375 1195.7,835.431C1194.2,835.791 1192.96,836.762 1193.13,837.429C1193.29,838.014 1194.31,838.257 1195.85,838.561C1197.4,838.866 1199.17,839.213 1200.41,840.457C1202.4,842.455 1201.84,845.61 1200.2,847.39C1199.76,847.865 1199.27,848.263 1198.75,848.604L1201.34,849.212C1201.8,849.32 1202.19,849.666 1202.36,850.126C1202.54,850.586 1202.47,851.093 1202.2,851.467C1198.67,856.267 1197.73,859.788 1199.27,862.221C1199.49,862.576 1199.79,862.932 1200.1,863.308C1200.66,863.983 1201.29,864.747 1201.67,865.725C1202.52,867.936 1201.8,871.199 1198.8,873.164C1196.91,874.412 1194.74,874.825 1192.65,875.226L1192.04,875.342C1184.25,876.876 1177.93,879.691 1173.26,883.713C1167.83,888.475 1164.76,894.985 1164.76,901.56C1164.78,908.67 1168.63,915.628 1174.1,918.474C1179.91,921.515 1187.42,919.243 1190.26,913.631C1191.12,911.957 1191.59,910.076 1192.09,908.087C1192.46,906.64 1192.84,905.145 1193.4,903.704C1196.81,894.971 1205.65,890.291 1213.77,886.608C1220.51,883.599 1229.05,879.184 1234.74,871.574C1242.05,862.072 1235.42,834.773 1232.39,823.074C1231.72,820.508 1231.22,818.653 1231,817.512C1230.86,816.756 1231.36,816.046 1232.13,815.927C1232.9,815.809 1233.65,816.324 1233.79,817.08C1233.99,818.124 1234.49,820.032 1235.12,822.445C1238.46,835.555 1244.95,862.733 1236.79,873.296C1230.72,881.411 1221.8,886.043 1214.79,889.186C1207.12,892.679 1198.78,897.081 1195.69,904.932C1195.19,906.219 1194.84,907.568 1194.47,908.996C1193.94,911.057 1193.4,913.188 1192.39,915.149C1190.68,918.495 1187.68,920.941 1183.95,922.035C1182.38,922.499 1180.75,922.687 1179.13,922.608" style="fill:rgb(0,114,206);fill-rule:nonzero;"/>
    </g>
    <g transform="matrix(4.16667,0,0,4.16667,-4804.46,-3396.41)">
        <path d="M1304.55,867.446L1304.55,858.207L1316.69,858.207L1317.56,855.634L1301.73,855.634L1301.73,881.504L1304.55,881.504L1304.55,869.982L1314.44,869.982L1315.31,867.446L1304.55,867.446Z" style="fill:rgb(0,60,113);fill-rule:nonzero;"/>
    </g>
    <g transform="matrix(4.16667,0,0,4.16667,-4804.46,-3394.9)">
        <path d="M1329.91,855.235L1322.27,855.235L1322.27,881.141L1325.13,881.141L1325.13,869.728L1330.53,869.728L1338.43,881.54L1340.6,879.764L1333.54,869.402C1336.8,868.714 1339.19,866.866 1339.19,862.482C1339.19,856.576 1334.84,855.235 1329.91,855.235ZM1325.13,857.808L1329.91,857.808C1333.43,857.808 1336.29,858.822 1336.29,862.482C1336.29,866.105 1333.43,867.156 1329.91,867.156L1325.13,867.156L1325.13,857.808Z" style="fill:rgb(0,60,113);fill-rule:nonzero;"/>
    </g>
    <g transform="matrix(4.16667,0,0,4.16667,-4804.46,-3398.22)">
        <path d="M1359.37,873.605L1349.84,873.605L1354.59,862.3L1359.37,873.605ZM1362.85,881.938L1365.68,881.938L1354.59,855.634L1343.5,881.938L1346.33,881.938L1348.75,876.177L1360.42,876.177L1362.85,881.938Z" style="fill:rgb(0,60,113);fill-rule:nonzero;"/>
    </g>
    <g transform="matrix(4.16667,0,0,4.16667,-4804.46,-3396.55)">
        <path d="M1392.63,881.938L1392.63,855.38L1389.81,856.249L1389.81,875.199L1370.75,855.235L1370.75,881.539L1373.57,881.539L1373.57,862.119L1392.63,881.938Z" style="fill:rgb(0,60,113);fill-rule:nonzero;"/>
    </g>
    <g transform="matrix(4.16667,0,0,4.16667,-4804.46,-3396.71)">
        <path d="M1420.1,879.656L1420.1,875.996C1419.81,876.359 1417.05,879.547 1412.27,879.547C1406.33,879.547 1401.62,874.583 1401.62,868.605C1401.62,862.663 1406.33,857.663 1412.27,857.663C1417.34,857.663 1420.13,861.25 1420.13,861.25L1420.13,857.59C1416.33,854.873 1412.27,855.054 1412.27,855.054C1404.81,855.054 1398.72,861.141 1398.72,868.605C1398.72,876.069 1404.81,882.156 1412.27,882.156C1412.27,882.156 1416.33,882.337 1420.1,879.656Z" style="fill:rgb(0,60,113);fill-rule:nonzero;"/>
    </g>
    <g transform="matrix(4.16667,0,0,4.16667,-4804.46,-3397.92)">
        <path d="M1426.29,881.866L1429.12,881.866L1429.12,855.634L1426.29,856.504L1426.29,881.866Z" style="fill:rgb(0,60,113);fill-rule:nonzero;"/>
    </g>
    <g transform="matrix(4.16667,0,0,4.16667,-4804.46,-3397.61)">
        <path d="M1437.99,862.3C1437.99,859.221 1439.91,857.952 1443.28,857.952C1446.84,857.952 1449.48,859.474 1450.68,860.815L1450.68,857.735C1449.48,856.539 1447.05,855.235 1443.28,855.235C1439.19,855.235 1434.99,857.119 1434.99,862.3C1434.99,866.721 1439.88,868.568 1442.81,869.583C1446,870.67 1449.7,871.829 1449.7,874.619C1449.7,877.482 1447.89,879.511 1443.18,879.511C1440.42,879.511 1436.55,877.554 1434.91,876.141L1434.91,879.329C1436.55,880.779 1439.37,882.192 1443.18,882.192C1449.59,882.192 1452.7,879.583 1452.7,874.619C1452.7,869.837 1447.52,868.17 1444.23,867.01C1441.29,865.96 1437.99,864.837 1437.99,862.3Z" style="fill:rgb(0,60,113);fill-rule:nonzero;"/>
    </g>
    <g transform="matrix(4.16667,0,0,4.16667,-4804.46,-3396.71)">
        <path d="M1478.79,879.656L1478.79,875.996C1478.5,876.359 1475.75,879.547 1470.97,879.547C1465.02,879.547 1460.31,874.583 1460.31,868.605C1460.31,862.663 1465.02,857.663 1470.97,857.663C1476.04,857.663 1478.83,861.25 1478.83,861.25L1478.83,857.59C1475.02,854.873 1470.97,855.054 1470.97,855.054C1463.5,855.054 1457.42,861.141 1457.42,868.605C1457.42,876.069 1463.5,882.156 1470.97,882.156C1470.97,882.156 1475.02,882.337 1478.79,879.656Z" style="fill:rgb(0,60,113);fill-rule:nonzero;"/>
    </g>
    <g transform="matrix(4.16667,0,0,4.16667,-4804.46,-3396.71)">
        <path d="M1497.45,882.156C1504.88,882.156 1511,876.069 1511,868.605C1511,861.141 1504.88,855.054 1497.45,855.054C1489.99,855.054 1483.9,861.141 1483.9,868.605C1483.9,876.069 1489.99,882.156 1497.45,882.156ZM1497.45,879.547C1491.51,879.547 1486.8,874.583 1486.8,868.605C1486.8,862.663 1491.51,857.663 1497.45,857.663C1503.39,857.663 1508.1,862.663 1508.1,868.605C1508.1,874.583 1503.39,879.547 1497.45,879.547Z" style="fill:rgb(0,60,113);fill-rule:nonzero;"/>
    </g>
    <g transform="matrix(4.16667,0,0,4.16667,-4804.46,-3397.01)">
        <path d="M1534.19,855.634L1526.22,855.634L1526.22,881.649L1534.19,881.649C1539.48,881.649 1543.25,878.823 1543.25,873.968C1543.25,870.635 1541.65,868.751 1538.97,867.664C1541.04,866.722 1542.09,865.127 1542.09,862.301C1542.09,857.99 1539.48,855.634 1534.19,855.634ZM1529.05,858.497L1534.19,858.497C1537.42,858.497 1539.23,859.62 1539.23,862.301C1539.23,865.019 1537.42,866.287 1534.19,866.287L1529.05,866.287L1529.05,858.497ZM1529.05,869.113L1535.1,869.113C1538.14,869.113 1540.39,871.287 1540.39,873.968C1540.39,876.649 1538.14,878.823 1535.1,878.823L1529.05,878.823L1529.05,869.113Z" style="fill:rgb(0,60,113);fill-rule:nonzero;"/>
    </g>
    <g transform="matrix(4.16667,0,0,4.16667,-4804.46,-3398.22)">
        <path d="M1562.92,873.605L1553.39,873.605L1558.14,862.3L1562.92,873.605ZM1566.4,881.938L1569.23,881.938L1558.14,855.634L1547.05,881.938L1549.88,881.938L1552.31,876.177L1563.97,876.177L1566.4,881.938Z" style="fill:rgb(0,60,113);fill-rule:nonzero;"/>
    </g>
    <g transform="matrix(4.16667,0,0,4.16667,-4804.46,-3396.41)">
        <path d="M1581.22,855.634L1574.3,855.634L1574.3,881.504L1577.16,881.504L1577.16,871.577L1581.22,871.577C1587.27,871.577 1590.64,868.932 1590.64,863.605C1590.64,858.424 1587.16,855.634 1581.22,855.634ZM1577.16,858.207L1581.22,858.207C1585.42,858.207 1587.74,860.127 1587.74,863.605C1587.74,867.12 1585.42,869.004 1581.22,869.004L1577.16,869.004L1577.16,858.207Z" style="fill:rgb(0,60,113);fill-rule:nonzero;"/>
    </g>
    <g transform="matrix(4.16667,0,0,4.16667,-4804.46,-3396.56)">
        <path d="M1613.61,858.207L1614.48,855.634L1594.77,855.634L1593.9,858.207L1602.78,858.207L1602.78,881.54L1605.6,881.54L1605.6,858.207L1613.61,858.207Z" style="fill:rgb(0,60,113);fill-rule:nonzero;"/>
    </g>
    <g transform="matrix(4.16667,0,0,4.16667,-4804.46,-3397.92)">
        <path d="M1619.92,881.866L1622.74,881.866L1622.74,855.634L1619.92,856.504L1619.92,881.866Z" style="fill:rgb(0,60,113);fill-rule:nonzero;"/>
    </g>
    <g transform="matrix(4.16667,0,0,4.16667,-4804.46,-3397.61)">
        <path d="M1631.62,862.3C1631.62,859.221 1633.54,857.952 1636.91,857.952C1640.46,857.952 1643.11,859.474 1644.3,860.815L1644.3,857.735C1643.11,856.539 1640.68,855.235 1636.91,855.235C1632.82,855.235 1628.61,857.119 1628.61,862.3C1628.61,866.721 1633.5,868.568 1636.44,869.583C1639.63,870.67 1643.32,871.829 1643.32,874.619C1643.32,877.482 1641.51,879.511 1636.8,879.511C1634.05,879.511 1630.17,877.554 1628.54,876.141L1628.54,879.329C1630.17,880.779 1633,882.192 1636.8,882.192C1643.21,882.192 1646.33,879.583 1646.33,874.619C1646.33,869.837 1641.15,868.17 1637.85,867.01C1634.92,865.96 1631.62,864.837 1631.62,862.3Z" style="fill:rgb(0,60,113);fill-rule:nonzero;"/>
    </g>
    <g transform="matrix(4.16667,0,0,4.16667,-4804.46,-3396.56)">
        <path d="M1670.03,858.207L1670.9,855.634L1651.18,855.634L1650.32,858.207L1659.19,858.207L1659.19,881.54L1662.02,881.54L1662.02,858.207L1670.03,858.207Z" style="fill:rgb(0,60,113);fill-rule:nonzero;"/>
    </g>
    <g transform="matrix(4.16667,0,0,4.16667,-4804.46,-3398.22)">
        <path d="M1686.65,873.605L1677.12,873.605L1681.87,862.3L1686.65,873.605ZM1690.13,881.938L1692.96,881.938L1681.87,855.634L1670.78,881.938L1673.61,881.938L1676.03,876.177L1687.7,876.177L1690.13,881.938Z" style="fill:rgb(0,60,113);fill-rule:nonzero;"/>
    </g>
    <g transform="matrix(4.16667,0,0,4.16667,-4804.46,-3133.65)">
        <path d="M1303.05,845.038L1303.05,838.066L1310.63,838.066L1311.3,836.121L1303.05,836.121L1303.05,829.038L1312.38,829.038L1313.05,827.066L1300.88,827.066L1300.88,847.01L1312.38,847.01L1313.05,845.038L1303.05,845.038Z" style="fill:rgb(241,90,36);fill-rule:nonzero;"/>
    </g>
    <g transform="matrix(4.16667,0,0,4.16667,-4804.46,-3132.03)">
        <path d="M1334.99,847.177L1337.1,846.51L1329.77,836.621L1336.77,827.177L1334.8,826.51L1328.55,834.954L1322.3,826.51L1320.19,827.177L1327.24,836.732L1320.02,846.51L1321.96,847.177L1328.49,838.371L1334.99,847.177Z" style="fill:rgb(241,90,36);fill-rule:nonzero;"/>
    </g>
    <g transform="matrix(4.16667,0,0,4.16667,-4804.46,-3133.65)">
        <path d="M1348.19,845.038L1348.19,838.066L1355.77,838.066L1356.44,836.121L1348.19,836.121L1348.19,829.038L1357.52,829.038L1358.19,827.066L1346.02,827.066L1346.02,847.01L1357.52,847.01L1358.19,845.038L1348.19,845.038Z" style="fill:rgb(241,90,36);fill-rule:nonzero;"/>
    </g>
    <g transform="matrix(4.16667,0,0,4.16667,-4804.46,-3133.42)">
        <path d="M1382.1,845.482L1382.1,842.676C1381.88,842.954 1379.77,845.399 1376.1,845.399C1371.55,845.399 1367.94,841.593 1367.94,837.01C1367.94,832.454 1371.55,828.621 1376.1,828.621C1379.99,828.621 1382.13,831.371 1382.13,831.371L1382.13,828.565C1379.21,826.482 1376.1,826.621 1376.1,826.621C1370.38,826.621 1365.71,831.287 1365.71,837.01C1365.71,842.732 1370.38,847.399 1376.1,847.399C1376.1,847.399 1379.21,847.538 1382.1,845.482Z" style="fill:rgb(241,90,36);fill-rule:nonzero;"/>
    </g>
    <g transform="matrix(4.16667,0,0,4.16667,-4804.46,-3131.91)">
        <path d="M1391.6,838.454C1391.58,843.093 1393.08,847.177 1399.38,847.177C1405.69,847.177 1406.91,843.065 1406.94,838.454L1406.94,826.482L1404.77,827.149L1404.77,838.454C1404.77,841.343 1404.27,845.232 1399.38,845.232C1394.49,845.232 1393.77,841.343 1393.77,838.454L1393.77,826.482L1391.6,827.149L1391.6,838.454Z" style="fill:rgb(241,90,36);fill-rule:nonzero;"/>
    </g>
    <g transform="matrix(4.16667,0,0,4.16667,-4804.46,-3133.3)">
        <path d="M1430.96,829.038L1431.63,827.066L1416.52,827.066L1415.85,829.038L1422.66,829.038L1422.66,846.927L1424.83,846.927L1424.83,829.038L1430.96,829.038Z" style="fill:rgb(241,90,36);fill-rule:nonzero;"/>
    </g>
    <g transform="matrix(4.16667,0,0,4.16667,-4804.46,-3134.35)">
        <path d="M1440.55,847.177L1442.71,847.177L1442.71,827.066L1440.55,827.733L1440.55,847.177Z" style="fill:rgb(241,90,36);fill-rule:nonzero;"/>
    </g>
    <g transform="matrix(4.16667,0,0,4.16667,-4804.46,-3133.07)">
        <path d="M1459.96,847.177L1468.58,827.427L1466.41,826.76L1459.96,842.066L1453.55,826.76L1451.35,827.427L1459.96,847.177Z" style="fill:rgb(241,90,36);fill-rule:nonzero;"/>
    </g>
    <g transform="matrix(4.16667,0,0,4.16667,-4804.46,-3133.65)">
        <path d="M1479.38,845.038L1479.38,838.066L1486.96,838.066L1487.63,836.121L1479.38,836.121L1479.38,829.038L1488.71,829.038L1489.38,827.066L1477.21,827.066L1477.21,847.01L1488.71,847.01L1489.38,845.038L1479.38,845.038Z" style="fill:rgb(241,90,36);fill-rule:nonzero;"/>
    </g>
    <g transform="matrix(4.16667,0,0,4.16667,-4804.46,-3133.42)">
        <path d="M1524.99,845.482L1524.99,842.676C1524.77,842.954 1522.66,845.399 1518.99,845.399C1514.44,845.399 1510.83,841.593 1510.83,837.01C1510.83,832.454 1514.44,828.621 1518.99,828.621C1522.88,828.621 1525.02,831.371 1525.02,831.371L1525.02,828.565C1522.1,826.482 1518.99,826.621 1518.99,826.621C1513.27,826.621 1508.6,831.287 1508.6,837.01C1508.6,842.732 1513.27,847.399 1518.99,847.399C1518.99,847.399 1522.1,847.538 1524.99,845.482Z" style="fill:rgb(241,90,36);fill-rule:nonzero;"/>
    </g>
    <g transform="matrix(4.16667,0,0,4.16667,-4804.46,-3133.42)">
        <path d="M1544.05,847.399C1549.74,847.399 1554.44,842.732 1554.44,837.01C1554.44,831.287 1549.74,826.621 1544.05,826.621C1538.33,826.621 1533.66,831.287 1533.66,837.01C1533.66,842.732 1538.33,847.399 1544.05,847.399ZM1544.05,845.399C1539.49,845.399 1535.88,841.593 1535.88,837.01C1535.88,832.454 1539.49,828.621 1544.05,828.621C1548.6,828.621 1552.22,832.454 1552.22,837.01C1552.22,841.593 1548.6,845.399 1544.05,845.399Z" style="fill:rgb(241,90,36);fill-rule:nonzero;"/>
    </g>
    <g transform="matrix(4.16667,0,0,4.16667,-4804.46,-3134.58)">
        <path d="M1574.41,840.844L1567.1,840.844L1570.74,832.178L1574.41,840.844ZM1577.08,847.233L1579.24,847.233L1570.74,827.066L1562.24,847.233L1564.41,847.233L1566.27,842.816L1575.22,842.816L1577.08,847.233Z" style="fill:rgb(241,90,36);fill-rule:nonzero;"/>
    </g>
    <g transform="matrix(4.16667,0,0,4.16667,-4804.46,-3133.42)">
        <path d="M1603.44,845.482L1603.44,842.676C1603.22,842.954 1601.1,845.399 1597.44,845.399C1592.88,845.399 1589.27,841.593 1589.27,837.01C1589.27,832.454 1592.88,828.621 1597.44,828.621C1601.33,828.621 1603.47,831.371 1603.47,831.371L1603.47,828.565C1600.55,826.482 1597.44,826.621 1597.44,826.621C1591.72,826.621 1587.05,831.287 1587.05,837.01C1587.05,842.732 1591.72,847.399 1597.44,847.399C1597.44,847.399 1600.55,847.538 1603.44,845.482Z" style="fill:rgb(241,90,36);fill-rule:nonzero;"/>
    </g>
    <g transform="matrix(4.16667,0,0,4.16667,-4804.46,-3134.35)">
        <path d="M1626.86,836.344L1615.1,836.344L1615.1,827.066L1612.94,827.733L1612.94,847.177L1615.1,847.177L1615.1,838.316L1626.86,838.316L1626.86,847.177L1629.02,847.177L1629.02,827.066L1626.86,827.733L1626.86,836.344Z" style="fill:rgb(241,90,36);fill-rule:nonzero;"/>
    </g>
    <g transform="matrix(4.16667,0,0,4.16667,-4804.46,-3134.35)">
        <path d="M1639.33,847.177L1641.49,847.177L1641.49,827.066L1639.33,827.733L1639.33,847.177Z" style="fill:rgb(241,90,36);fill-rule:nonzero;"/>
    </g>
    <g transform="matrix(4.16667,0,0,4.16667,-4804.46,-3133.3)">
        <path d="M1668.58,847.233L1668.58,826.871L1666.41,827.538L1666.41,842.066L1651.8,826.76L1651.8,846.927L1653.97,846.927L1653.97,832.038L1668.58,847.233Z" style="fill:rgb(241,90,36);fill-rule:nonzero;"/>
    </g>
    <g transform="matrix(4.16667,0,0,4.16667,-4804.46,-3133.54)">
        <path d="M1694.06,844.15L1694.06,837.733L1687.37,837.733L1686.7,839.705L1691.87,839.705L1691.87,843.372C1690.95,844.178 1689.12,845.428 1686.51,845.428C1681.95,845.428 1678.34,841.622 1678.34,837.039C1678.34,832.483 1681.87,828.65 1686.42,828.65C1690.62,828.65 1692.76,831.65 1692.76,831.65L1692.76,828.761C1689.76,826.427 1686.42,826.65 1686.42,826.65C1680.7,826.65 1676.12,831.316 1676.12,837.039C1676.12,842.761 1680.79,847.428 1686.51,847.428C1686.51,847.428 1690.84,847.622 1694.06,844.15Z" style="fill:rgb(241,90,36);fill-rule:nonzero;"/>
    </g>
</svg>
