<?xml version="1.0" encoding="UTF-8" standalone="no"?>
<!DOCTYPE svg PUBLIC "-//W3C//DTD SVG 1.1//EN" "http://www.w3.org/Graphics/SVG/1.1/DTD/svg11.dtd">
<svg width="100%" height="100%" viewBox="0 0 488 616" version="1.1" xmlns="http://www.w3.org/2000/svg" xmlns:xlink="http://www.w3.org/1999/xlink" xml:space="preserve" xmlns:serif="http://www.serif.com/" style="fill-rule:evenodd;clip-rule:evenodd;stroke-linejoin:round;stroke-miterlimit:2;">
    <g transform="matrix(4.16667,0,0,4.16667,-2008.22,-2246.87)">
        <path d="M506.624,687.014C502.963,687.014 499.303,686.931 495.65,686.737C488.115,686.335 481.978,679.687 481.973,671.915L481.973,554.34C481.973,546.706 488.235,539.918 495.647,539.516C497.28,539.414 498.716,540.696 498.805,542.35C498.895,544.004 497.626,545.418 495.972,545.508C491.711,545.739 487.973,549.866 487.973,554.34L487.973,671.912C487.977,676.39 491.713,680.519 495.969,680.744C510.65,681.529 525.674,680.457 540.206,679.423C554.918,678.375 570.133,677.295 585.192,678.095C587.395,678.226 589.393,677.533 590.829,676.173C592.164,674.909 592.87,673.205 592.871,671.245L592.871,555.006C592.87,553.05 592.165,551.348 590.832,550.085C589.395,548.723 587.373,548.036 585.194,548.158C570.134,548.957 554.92,547.877 540.206,546.829C530.784,546.16 521.042,545.466 511.499,545.284C509.843,545.252 508.525,543.884 508.558,542.227C508.589,540.59 509.926,539.285 511.556,539.285L511.614,539.285C521.312,539.47 531.134,540.169 540.632,540.845C555.162,541.876 570.184,542.945 584.874,542.165C588.727,541.954 592.313,543.223 594.958,545.729C597.479,548.118 598.869,551.412 598.871,555.004L598.871,671.246C598.87,674.844 597.478,678.14 594.954,680.531C592.308,683.035 588.74,684.311 584.869,684.086C570.187,683.307 555.162,684.374 540.631,685.409C529.488,686.201 518.056,687.014 506.624,687.014" style="fill:rgb(0,114,206);fill-rule:nonzero;"/>
    </g>
    <g transform="matrix(4.16667,0,0,4.16667,-2008.22,-2837.6)">
        <path d="M502.447,687.049C500.817,687.049 499.48,685.744 499.449,684.108C499.416,682.451 500.733,681.082 502.389,681.05C503,681.037 503.608,681.028 504.218,681.023L504.243,681.023C505.887,681.023 507.228,682.35 507.242,683.998C507.256,685.654 505.924,687.009 504.266,687.023C503.68,687.028 503.093,687.037 502.507,687.048C502.487,687.049 502.467,687.049 502.447,687.049" style="fill:rgb(0,114,206);fill-rule:nonzero;"/>
    </g>
    <g transform="matrix(4.16667,0,0,4.16667,-2008.22,-2697.15)">
        <path d="M565.527,671.017C565.503,671.017 565.477,671.017 565.451,671.016C557.035,670.806 548.501,670.33 540.249,669.871C537.613,669.723 534.978,669.577 532.342,669.438C530.688,669.35 529.418,667.939 529.505,666.284C529.591,664.628 531.002,663.349 532.659,663.446C535.299,663.585 537.941,663.733 540.583,663.879C548.79,664.337 557.276,664.81 565.601,665.018C567.257,665.059 568.566,666.435 568.525,668.092C568.484,669.723 567.15,671.017 565.527,671.017" style="fill:rgb(241,90,36);fill-rule:nonzero;"/>
    </g>
    <g transform="matrix(4.16667,0,0,4.16667,-2008.22,-2633.52)">
        <path d="M565.527,663.244C565.506,663.244 565.484,663.244 565.462,663.243C557.082,663.064 548.582,662.657 540.361,662.264C537.696,662.137 535.031,662.009 532.365,661.889C530.711,661.813 529.429,660.411 529.504,658.756C529.579,657.102 530.943,655.85 532.636,655.894C535.306,656.015 537.977,656.142 540.648,656.27C548.83,656.662 557.289,657.067 565.59,657.245C567.247,657.28 568.561,658.651 568.525,660.308C568.491,661.942 567.154,663.244 565.527,663.244" style="fill:rgb(241,90,36);fill-rule:nonzero;"/>
    </g>
    <g transform="matrix(4.16667,0,0,4.16667,-2008.22,-2570.02)">
        <path d="M565.527,655.502L565.472,655.502C557.075,655.352 548.554,655.011 540.314,654.682C537.673,654.575 535.03,654.47 532.387,654.37C530.732,654.308 529.44,652.914 529.503,651.259C529.565,649.604 530.951,648.351 532.614,648.374C535.26,648.475 537.908,648.58 540.554,648.686C548.761,649.015 557.249,649.354 565.58,649.502C567.236,649.532 568.555,650.898 568.526,652.556C568.497,654.193 567.159,655.502 565.527,655.502" style="fill:rgb(241,90,36);fill-rule:nonzero;"/>
    </g>
    <g transform="matrix(4.16667,0,0,4.16667,-2008.22,-2445.97)">
        <path d="M565.527,640.388L565.493,640.388C557.113,640.295 548.604,640.086 540.375,639.884C537.726,639.819 535.079,639.753 532.431,639.692C530.774,639.654 529.463,638.28 529.502,636.623C529.54,634.991 530.875,633.693 532.5,633.693C532.523,633.693 532.547,633.693 532.57,633.694C535.221,633.755 537.872,633.821 540.522,633.885C548.731,634.087 557.22,634.296 565.559,634.388C567.215,634.407 568.544,635.764 568.526,637.421C568.507,639.067 567.168,640.388 565.527,640.388" style="fill:rgb(241,90,36);fill-rule:nonzero;"/>
    </g>
    <g transform="matrix(4.16667,0,0,4.16667,-2008.22,-2382.78)">
        <path d="M565.526,632.723L565.504,632.723C557.204,632.661 548.773,632.52 540.62,632.382L532.453,632.248C530.797,632.222 529.475,630.858 529.501,629.201C529.527,627.544 530.883,626.193 532.548,626.248L540.72,626.383C548.86,626.52 557.277,626.661 565.548,626.723C567.205,626.736 568.539,628.088 568.526,629.745C568.513,631.395 567.172,632.723 565.526,632.723" style="fill:rgb(241,90,36);fill-rule:nonzero;"/>
    </g>
    <g transform="matrix(4.16667,0,0,4.16667,-2008.22,-2319.13)">
        <path d="M565.526,624.947L565.514,624.947C557.05,624.913 548.587,624.838 540.124,624.761L532.475,624.694C530.818,624.679 529.487,623.325 529.501,621.669C529.514,620.02 530.855,618.694 532.5,618.694L532.526,618.694L540.177,618.761C548.63,618.838 557.085,618.913 565.538,618.947C567.195,618.954 568.533,620.302 568.526,621.959C568.519,623.612 567.177,624.947 565.526,624.947" style="fill:rgb(241,90,36);fill-rule:nonzero;"/>
    </g>
    <g transform="matrix(4.16667,0,0,4.16667,-2008.22,-2195.19)">
        <path d="M532.501,610.038C530.853,610.038 529.511,608.707 529.501,607.057C529.491,605.399 530.826,604.048 532.482,604.038L540.489,603.988C548.832,603.934 557.175,603.882 565.518,603.856L565.526,603.856C567.18,603.856 568.522,605.193 568.526,606.848C568.531,608.504 567.192,609.851 565.535,609.856C557.199,609.882 548.864,609.934 540.528,609.988L532.52,610.038L532.501,610.038Z" style="fill:rgb(241,90,36);fill-rule:nonzero;"/>
    </g>
    <g transform="matrix(4.16667,0,0,4.16667,-2008.22,-2131.76)">
        <path d="M532.5,602.537C530.862,602.537 529.523,601.221 529.501,599.577C529.479,597.921 530.804,596.559 532.461,596.537L540.395,596.426C548.623,596.308 557.132,596.187 565.507,596.134L565.526,596.134C567.175,596.134 568.516,597.464 568.526,599.114C568.537,600.771 567.202,602.123 565.546,602.134C557.194,602.187 548.697,602.308 540.48,602.426L532.541,602.537L532.5,602.537Z" style="fill:rgb(241,90,36);fill-rule:nonzero;"/>
    </g>
    <g transform="matrix(4.16667,0,0,4.16667,-2008.22,-2068.34)">
        <path d="M532.5,595.039C530.872,595.039 529.536,593.737 529.502,592.101C529.467,590.445 530.781,589.074 532.438,589.04L540.417,588.866C548.634,588.684 557.131,588.495 565.496,588.412L565.527,588.412C567.17,588.412 568.51,589.735 568.526,591.382C568.543,593.039 567.213,594.395 565.557,594.412C557.227,594.495 548.749,594.683 540.551,594.864L532.563,595.038C532.542,595.039 532.521,595.039 532.5,595.039" style="fill:rgb(241,90,36);fill-rule:nonzero;"/>
    </g>
    <g transform="matrix(4.16667,0,0,4.16667,-2008.22,-1944.39)">
        <path d="M532.499,580.381C530.892,580.381 529.561,579.107 529.503,577.487C529.444,575.831 530.739,574.442 532.395,574.383C535.016,574.29 537.637,574.192 540.257,574.093C548.518,573.783 557.06,573.463 565.476,573.321L565.527,573.321C567.161,573.321 568.498,574.632 568.526,576.272C568.554,577.928 567.233,579.293 565.576,579.321C557.222,579.461 548.712,579.78 540.482,580.089C537.857,580.188 535.232,580.286 532.607,580.379C532.571,580.38 532.535,580.381 532.499,580.381" style="fill:rgb(241,90,36);fill-rule:nonzero;"/>
    </g>
    <g transform="matrix(4.16667,0,0,4.16667,-2008.22,-1880.98)">
        <path d="M532.499,572.883C530.901,572.883 529.573,571.623 529.504,570.012C529.433,568.356 530.717,566.956 532.372,566.886C535.021,566.773 537.671,566.653 540.319,566.531C548.555,566.158 557.07,565.772 565.466,565.602C565.486,565.601 565.507,565.601 565.527,565.601C567.156,565.601 568.492,566.904 568.525,568.54C568.56,570.196 567.244,571.567 565.587,571.6C557.268,571.769 548.79,572.154 540.592,572.526C537.937,572.646 535.283,572.767 532.63,572.88C532.586,572.882 532.542,572.883 532.499,572.883" style="fill:rgb(241,90,36);fill-rule:nonzero;"/>
    </g>
    <g transform="matrix(4.16667,0,0,4.16667,-2008.22,-1817.75)">
        <path d="M532.498,565.429C530.911,565.429 529.585,564.183 529.505,562.579C529.422,560.925 530.695,559.516 532.351,559.433C535.015,559.299 537.679,559.158 540.343,559.016C548.565,558.577 557.069,558.125 565.455,557.926C567.154,557.879 568.485,559.199 568.525,560.854C568.564,562.51 567.254,563.885 565.598,563.924C557.3,564.121 548.842,564.572 540.661,565.007C537.991,565.149 535.321,565.291 532.651,565.425C532.601,565.428 532.549,565.429 532.498,565.429" style="fill:rgb(241,90,36);fill-rule:nonzero;"/>
    </g>
    <g transform="matrix(4.16667,0,0,4.16667,-2008.22,-2642.19)">
        <path d="M510.531,668.086L510.531,657.037C509.617,657.75 508.703,658.465 507.789,659.186C507.185,658.34 506.584,657.496 505.981,656.654C507.594,655.44 509.208,654.236 510.821,653.045C511.881,653.059 512.941,653.077 514.002,653.1L514.002,668.129C512.845,668.111 511.688,668.096 510.531,668.086" style="fill:rgb(0,114,206);fill-rule:nonzero;"/>
    </g>
    <g transform="matrix(4.16667,0,0,4.16667,-2008.22,-2385.8)">
        <path d="M506.064,637.529L506.064,634.557C507.976,632.789 509.886,631.023 511.798,629.264C512.16,628.914 512.446,628.558 512.671,628.188C512.892,627.821 513.002,627.413 513.003,626.961C513.003,626.422 512.837,625.986 512.505,625.654C512.173,625.322 511.731,625.151 511.175,625.148C510.591,625.146 510.119,625.352 509.752,625.767C509.383,626.184 509.169,626.734 509.097,627.413C507.982,627.254 506.867,627.097 505.752,626.942C505.835,626.178 506.043,625.499 506.365,624.898C506.691,624.3 507.099,623.791 507.601,623.369C508.103,622.952 508.673,622.631 509.316,622.411C509.959,622.191 510.64,622.088 511.362,622.09C512.043,622.095 512.697,622.189 513.336,622.38C513.972,622.573 514.539,622.853 515.04,623.245C515.541,623.633 515.939,624.115 516.235,624.699C516.534,625.28 516.682,625.966 516.681,626.74C516.681,627.275 516.608,627.759 516.474,628.19C516.335,628.621 516.146,629.017 515.902,629.383C515.66,629.752 515.38,630.09 515.071,630.406C514.756,630.718 514.437,631.038 514.105,631.343C512.97,632.371 511.834,633.4 510.698,634.431C512.699,634.435 514.701,634.445 516.703,634.458L516.703,637.552C513.157,637.537 509.611,637.529 506.064,637.529" style="fill:rgb(0,114,206);fill-rule:nonzero;"/>
    </g>
    <g transform="matrix(4.16667,0,0,4.16667,-2008.22,-2126.07)">
        <path d="M516.765,601.767C516.764,602.585 516.606,603.294 516.277,603.899C515.951,604.499 515.527,604.997 514.999,605.393C514.47,605.785 513.879,606.081 513.223,606.277C512.559,606.474 511.897,606.572 511.217,606.578C510.554,606.583 509.909,606.505 509.275,606.352C508.643,606.199 508.067,605.96 507.551,605.644C507.03,605.326 506.579,604.913 506.188,604.412C505.803,603.91 505.506,603.304 505.317,602.593C506.398,602.304 507.478,602.013 508.559,601.721C508.693,602.217 508.982,602.65 509.41,603.025C509.838,603.398 510.389,603.586 511.051,603.582C511.299,603.579 511.553,603.546 511.811,603.472C512.061,603.397 512.299,603.292 512.496,603.14C512.694,602.988 512.866,602.794 512.994,602.552C513.124,602.308 513.194,602.017 513.192,601.66C513.198,601.277 513.103,600.955 512.932,600.705C512.758,600.449 512.531,600.253 512.246,600.103C511.962,599.956 511.644,599.853 511.28,599.788C510.922,599.726 510.563,599.697 510.2,599.698C509.888,599.699 509.576,599.699 509.264,599.701L509.264,597.107C509.604,597.106 509.944,597.105 510.283,597.105C510.615,597.105 510.933,597.079 511.239,597.027C511.546,596.976 511.815,596.883 512.059,596.746C512.301,596.609 512.494,596.427 512.641,596.2C512.784,595.968 512.859,595.673 512.86,595.301C512.861,594.759 512.667,594.349 512.298,594.064C511.926,593.778 511.491,593.637 511.01,593.64C510.509,593.64 510.079,593.792 509.711,594.099C509.342,594.403 509.106,594.813 508.994,595.323C507.914,595.07 506.834,594.814 505.753,594.558C505.934,593.92 506.207,593.368 506.563,592.89C506.926,592.416 507.35,592.018 507.84,591.699C508.333,591.381 508.871,591.136 509.452,590.974C510.036,590.808 510.633,590.727 511.239,590.728C511.888,590.723 512.523,590.811 513.141,590.98C513.758,591.15 514.305,591.412 514.791,591.761C515.273,592.115 515.664,592.556 515.965,593.085C516.262,593.615 516.412,594.24 516.412,594.962C516.411,595.796 516.179,596.506 515.716,597.08C515.25,597.66 514.659,598.043 513.94,598.247L513.94,598.312C514.352,598.407 514.738,598.568 515.082,598.783C515.433,598.997 515.724,599.256 515.977,599.56C516.223,599.864 516.416,600.198 516.558,600.572C516.695,600.941 516.764,601.343 516.765,601.767" style="fill:rgb(0,114,206);fill-rule:nonzero;"/>
    </g>
    <g transform="matrix(4.16667,0,0,4.16667,-2008.22,-1868.25)">
        <path d="M512.11,563.871C512.089,563.872 512.069,563.872 512.048,563.872C510.885,565.74 509.721,567.608 508.558,569.471C509.742,569.465 510.925,569.453 512.11,569.435L512.11,563.871ZM515.352,572.264L515.352,575.191C514.263,575.218 513.176,575.239 512.089,575.256L512.089,572.325C509.783,572.359 507.476,572.374 505.172,572.363C505.171,571.363 505.171,570.365 505.172,569.365C507.166,566.334 509.16,563.285 511.155,560.227C512.547,560.215 513.939,560.195 515.332,560.172L515.332,569.379C516.01,569.363 516.688,569.348 517.367,569.332C517.368,570.292 517.368,571.253 517.367,572.215C516.695,572.231 516.023,572.248 515.352,572.264" style="fill:rgb(0,114,206);fill-rule:nonzero;"/>
    </g>
</svg>
