<?xml version="1.0" encoding="UTF-8" standalone="no"?>
<!DOCTYPE svg PUBLIC "-//W3C//DTD SVG 1.1//EN" "http://www.w3.org/Graphics/SVG/1.1/DTD/svg11.dtd">
<svg width="100%" height="100%" viewBox="0 0 644 627" version="1.1" xmlns="http://www.w3.org/2000/svg" xmlns:xlink="http://www.w3.org/1999/xlink" xml:space="preserve" xmlns:serif="http://www.serif.com/" style="fill-rule:evenodd;clip-rule:evenodd;stroke-linejoin:round;stroke-miterlimit:2;">
    <g transform="matrix(4.16667,0,0,4.16667,-455.504,-3472.65)">
        <path d="M224.592,866.023L224.602,866.023L224.592,866.023ZM223.46,866.384C222.263,866.384 221.155,865.665 220.687,864.523C220.293,863.565 220.265,861.769 221.8,860.747C222.723,860.13 223.909,860.077 224.888,860.603C225.863,861.13 226.47,862.153 226.463,863.262C226.45,865.313 224.93,866.155 224.033,866.329C223.842,866.366 223.65,866.384 223.46,866.384" style="fill:rgb(0,114,206);fill-rule:nonzero;"/>
    </g>
    <g transform="matrix(4.16667,0,0,4.16667,-455.504,-3047)">
        <path d="M199.742,751.032L199.742,751.038L199.742,751.032ZM199.742,751.041C199.742,751.041 199.742,751.042 199.741,751.042C199.742,751.042 199.742,751.041 199.742,751.041M248.743,805.137L248.736,805.137L248.743,805.137M248.733,805.137C248.732,805.138 248.731,805.138 248.73,805.138C248.731,805.138 248.732,805.138 248.733,805.137M183.057,877.74C175.972,877.74 169.145,876.586 162.715,874.297C161.84,873.985 161.159,873.287 160.87,872.406C160.581,871.522 160.717,870.556 161.237,869.788C161.288,869.712 161.341,869.64 161.393,869.569C165.743,863.311 164.475,855.031 158.497,850.73C155.656,848.69 152.178,847.885 148.705,848.456C145.172,849.041 142.07,850.979 139.971,853.916C139.954,853.946 139.894,854.033 139.836,854.113C139.281,854.867 138.406,855.319 137.47,855.335C136.521,855.329 135.643,854.928 135.064,854.192C125.523,842.094 120.269,826.946 120.271,811.542C120.273,810.329 120.306,809.111 120.369,807.921C120.417,807.017 120.871,806.181 121.604,805.65C122.338,805.118 123.275,804.946 124.146,805.182C124.276,805.218 124.406,805.262 124.535,805.311C127.869,806.398 131.371,806.128 134.457,804.56C137.678,802.925 140.066,800.086 141.183,796.57C143.476,789.369 139.659,781.668 132.674,779.4C132.612,779.384 132.523,779.358 132.434,779.327C131.568,779.029 130.886,778.351 130.581,777.488C130.276,776.623 130.383,775.667 130.871,774.892C140.014,760.367 153.749,750.38 169.543,746.771C170.437,746.565 171.382,746.786 172.096,747.363C172.812,747.94 173.222,748.815 173.211,749.736C173.21,749.758 173.208,749.839 173.207,749.875L173.207,749.907C173.205,757.378 179.193,763.628 186.555,763.838C190.116,763.928 193.457,762.659 195.952,760.233C198.391,757.863 199.735,754.668 199.735,751.238C199.73,751.135 199.728,751.037 199.731,750.941C199.76,750.01 200.219,749.143 200.975,748.598C201.73,748.053 202.696,747.887 203.591,748.157C209.472,749.918 215.129,752.425 220.403,755.606C221.822,756.463 222.278,758.305 221.422,759.724C220.568,761.142 218.723,761.599 217.304,760.743C213.511,758.455 209.503,756.548 205.349,755.052C204.608,758.646 202.82,761.926 200.135,764.536C196.467,768.1 191.561,769.963 186.386,769.835C177.019,769.569 169.202,762.529 167.535,753.5C155.764,757.014 145.429,764.57 137.906,775.162C145.821,779.566 149.805,789.267 146.901,798.388C145.295,803.446 141.84,807.54 137.175,809.909C133.757,811.649 129.983,812.298 126.272,811.829C126.329,824.572 130.324,837.113 137.6,847.546C140.386,844.916 143.879,843.172 147.726,842.536C152.784,841.702 157.851,842.882 161.999,845.858C169.65,851.361 172.022,861.3 168.176,869.739C173.932,871.348 180.019,871.998 186.309,871.651C192.537,871.312 198.733,870.047 204.776,867.882C203.208,864.617 202.644,860.935 203.182,857.214C203.929,852.047 206.675,847.483 210.916,844.367C218.479,838.806 228.763,839.532 235.383,845.602C242.713,835.76 246.598,824.118 246.669,811.704C237.721,812.757 228.945,807.489 226.052,798.793C224.482,794.057 224.857,789.002 227.107,784.552C228.854,781.094 231.569,778.303 234.933,776.444C232.411,773.127 229.521,770.053 226.31,767.277C225.057,766.194 224.921,764.3 226.004,763.045C227.089,761.793 228.983,761.656 230.236,762.738C234.787,766.675 238.754,771.158 242.027,776.065C242.543,776.838 242.672,777.803 242.377,778.684C242.082,779.563 241.397,780.257 240.521,780.562C240.467,780.582 240.32,780.627 240.265,780.642C236.825,781.762 234.053,784.113 232.462,787.259C230.938,790.272 230.683,793.697 231.746,796.902C234.002,803.68 241.514,807.407 248.49,805.204C248.494,805.202 248.498,805.201 248.503,805.2C248.532,805.188 248.56,805.178 248.573,805.175C249.463,804.858 250.45,804.98 251.238,805.504C252.025,806.027 252.519,806.892 252.571,807.835C252.641,809.1 252.674,810.255 252.67,811.364C252.672,826.497 247.536,840.617 237.819,852.19C237.212,852.912 236.32,853.302 235.355,853.255C234.413,853.204 233.549,852.71 233.025,851.925C233.019,851.916 232.951,851.817 232.945,851.81C228.696,846.058 220.387,844.852 214.47,849.2C211.535,851.358 209.635,854.509 209.121,858.071C208.638,861.418 209.459,864.706 211.433,867.339C211.537,867.463 211.627,867.579 211.711,867.704C212.213,868.449 212.353,869.38 212.095,870.242C211.836,871.101 211.205,871.801 210.375,872.146C202.67,875.355 194.681,877.205 186.634,877.642C185.435,877.708 184.242,877.74 183.057,877.74" style="fill:rgb(0,114,206);fill-rule:nonzero;"/>
    </g>
    <g transform="matrix(4.16667,0,0,4.16667,-455.504,-3561.37)">
        <path d="M185.519,860.728C182.359,860.728 179.407,861.881 177.137,864.02C174.605,866.406 173.208,869.721 173.206,873.357C173.206,880.824 179.195,887.073 186.557,887.286C190.1,887.393 193.455,886.109 195.95,883.684C198.39,881.313 199.735,878.117 199.735,874.686C199.736,867.437 193.707,861.186 186.294,860.751C186.035,860.736 185.777,860.728 185.519,860.728M186.956,893.291C186.766,893.291 186.576,893.289 186.384,893.284C175.808,892.978 167.206,884.038 167.207,873.355C167.209,868.048 169.276,863.182 173.023,859.652C176.692,856.197 181.528,854.462 186.647,854.761C197.172,855.379 205.736,864.318 205.735,874.686L202.735,874.686L205.735,874.686C205.734,879.752 203.745,884.476 200.131,887.987C196.598,891.42 191.938,893.291 186.956,893.291" style="fill:rgb(241,90,36);fill-rule:nonzero;"/>
    </g>
    <g transform="matrix(4.16667,0,0,4.16667,-455.504,-3214.38)">
        <path d="M128.816,818.961C126.799,818.961 124.78,819.448 122.899,820.41C119.625,822.086 117.095,825.071 115.962,828.602C113.677,835.684 117.431,843.093 124.505,845.473C127.805,846.576 131.341,846.315 134.457,844.732C137.677,843.096 140.066,840.258 141.183,836.742C143.477,829.543 139.659,821.841 132.672,819.572C131.415,819.163 130.116,818.961 128.816,818.961M128.615,852.149C126.596,852.149 124.569,851.821 122.596,851.161C112.54,847.778 107.003,836.834 110.25,826.763C111.868,821.729 115.483,817.465 120.167,815.068C124.691,812.754 129.79,812.328 134.526,813.865C144.641,817.151 150.193,828.23 146.901,838.562C145.295,843.618 141.839,847.711 137.174,850.081C134.473,851.454 131.553,852.149 128.615,852.149" style="fill:rgb(241,90,36);fill-rule:nonzero;"/>
    </g>
    <g transform="matrix(4.16667,0,0,4.16667,-455.504,-2634.82)">
        <path d="M137.53,753.249L137.54,753.249L137.53,753.249ZM150.887,749.353C150.164,749.353 149.434,749.413 148.705,749.533C145.172,750.117 142.07,752.057 139.97,754.993C139.969,754.995 139.968,754.996 139.968,754.998C135.626,761.051 136.955,769.623 142.929,774.107C145.658,776.154 149.015,776.986 152.383,776.437C156.006,775.853 159.203,773.802 161.384,770.662C165.743,764.389 164.475,756.107 158.497,751.808C156.253,750.196 153.61,749.353 150.887,749.353M150.347,782.603C146.391,782.603 142.562,781.332 139.329,778.907C130.763,772.479 128.863,760.185 135.092,751.5C138.125,747.26 142.612,744.459 147.726,743.613C152.784,742.779 157.851,743.958 161.999,746.936C170.666,753.169 172.559,765.095 166.311,774.086C163.237,778.511 158.509,781.526 153.339,782.361C152.339,782.522 151.339,782.603 150.347,782.603" style="fill:rgb(241,90,36);fill-rule:nonzero;"/>
    </g>
    <g transform="matrix(4.16667,0,0,4.16667,-455.504,-2663.06)">
        <path d="M211.48,775.256C215.721,780.825 224.069,781.916 230.086,777.682C232.934,775.681 234.804,772.722 235.355,769.348C235.907,765.966 235.069,762.552 232.996,759.735C228.696,753.915 220.386,752.709 214.469,757.055C211.535,759.213 209.635,762.363 209.121,765.926C208.633,769.299 209.471,772.612 211.48,775.256M221.961,786.242C216.103,786.242 210.372,783.703 206.707,778.891L206.705,778.889C203.714,774.955 202.462,770.047 203.182,765.068C203.928,759.902 206.674,755.338 210.916,752.221C219.488,745.917 231.56,747.694 237.825,756.175C240.866,760.306 242.091,765.325 241.277,770.315C240.464,775.294 237.715,779.653 233.537,782.59C230.035,785.053 225.968,786.242 221.961,786.242" style="fill:rgb(241,90,36);fill-rule:nonzero;"/>
    </g>
    <g transform="matrix(4.16667,0,0,4.16667,-455.504,-3217.17)">
        <path d="M244.711,820.768C243.254,820.768 241.758,820.998 240.271,821.483C236.825,822.604 234.053,824.955 232.462,828.103C230.939,831.118 230.685,834.541 231.746,837.743C234.002,844.522 241.515,848.248 248.49,846.045C248.492,846.044 248.494,846.043 248.496,846.043C251.834,844.997 254.561,842.695 256.173,839.561C257.794,836.41 258.083,832.831 256.985,829.485C255.214,824.094 250.244,820.768 244.711,820.768M244.409,852.676C236.284,852.676 228.7,847.596 226.052,839.634C224.482,834.903 224.857,829.847 227.107,825.397C229.423,820.813 233.439,817.397 238.413,815.778C248.566,812.47 259.456,817.781 262.686,827.614C264.288,832.497 263.869,837.715 261.508,842.306C259.156,846.877 255.174,850.237 250.294,851.767C248.342,852.383 246.359,852.676 244.409,852.676" style="fill:rgb(241,90,36);fill-rule:nonzero;"/>
    </g>
</svg>
