<?xml version="1.0" encoding="UTF-8" standalone="no"?>
<!DOCTYPE svg PUBLIC "-//W3C//DTD SVG 1.1//EN" "http://www.w3.org/Graphics/SVG/1.1/DTD/svg11.dtd">
<svg width="100%" height="100%" viewBox="0 0 601 595" version="1.1" xmlns="http://www.w3.org/2000/svg" xmlns:xlink="http://www.w3.org/1999/xlink" xml:space="preserve" xmlns:serif="http://www.serif.com/" style="fill-rule:evenodd;clip-rule:evenodd;stroke-linejoin:round;stroke-miterlimit:2;">
    <g transform="matrix(4.16667,0,0,4.16667,-1943.89,-1394.73)">
        <path d="M481.726,403.912C480.546,403.545 479.374,403.139 478.218,402.694C476.856,402.179 475.505,401.601 474.175,400.984C472.775,400.337 471.423,399.6 470.059,398.891C469.812,398.76 469.357,398.683 469.607,398.244C469.796,397.92 470.169,397.84 470.529,397.975C470.794,398.074 471.033,398.227 471.279,398.363C473.628,399.644 476.027,400.842 478.505,401.819C479.609,402.257 480.732,402.643 481.86,402.978C483.385,403.43 484.938,403.781 486.53,403.996C494.081,405.035 501.698,405.808 509.169,403.225C514.372,401.424 518.805,398.391 522.692,394.55C528.449,388.852 532.828,382.3 535.666,374.773C536.814,371.727 537.111,368.486 537.3,365.245C537.792,356.684 537.532,348.11 536.951,339.503C536.947,339.375 536.929,339.254 536.902,339.125C536.743,338.489 536.696,337.736 537.476,337.736C538.08,337.744 538.189,338.532 538.233,339.072C538.453,341.625 538.656,344.174 538.833,346.73C539.343,354.101 539.003,361.408 538.304,368.704C537.646,375.612 538.986,382.039 543.378,387.618C546.528,391.623 550.657,394.314 555.222,396.379C560.87,398.933 566.837,400.306 572.954,401.072C577.644,401.667 582.361,402.027 587.095,401.818C593.693,401.527 600.048,400.06 606.237,397.743C606.714,397.564 607.351,397.068 607.628,397.753C607.914,398.438 607.171,398.655 606.641,398.853C601.244,400.86 595.759,402.41 590.024,403.012C584.072,403.631 578.132,403.519 572.197,402.857C569.128,402.516 566.089,401.776 562.989,402.027C555.703,402.615 549.062,404.892 543.681,410.015C538.609,414.836 537.021,420.859 538.386,427.652C539.171,431.535 539.793,435.426 539.658,439.431C539.453,445.439 537.794,451.141 535.546,456.76C534.628,459.042 533.568,461.282 532.572,463.549C532.409,463.923 532.246,464.302 532.011,464.85C534.937,463.227 538.064,463.994 539.68,466.529C540.13,467.233 540.302,467.996 540.247,468.842C540.214,469.281 540.183,469.723 540.156,470.166C540.036,472.492 540.84,473.342 543.185,473.325C544.583,473.311 545.947,472.965 547.31,472.656C547.659,472.579 548.135,472.319 548.256,472.851C548.357,473.307 548.035,473.596 547.555,473.705C545.719,474.114 543.893,474.545 542.018,474.371C540.007,474.182 539.029,473.117 539.051,471.072C539.052,470.758 539.066,470.445 539.097,470.124C539.302,467.51 537.677,465.458 535.103,465.117C533.287,464.871 531.345,466.277 530.736,468.326C530.455,469.285 530.331,470.262 530.472,471.254C530.529,471.699 530.758,472.256 529.999,472.375C529.246,472.49 529.247,471.892 529.201,471.394C529.052,469.984 529.283,468.615 529.732,467.248C530.673,464.4 532.033,461.725 533.257,459.006C536.321,452.215 538.245,445.25 538.034,437.9C537.772,429.012 534.815,421.195 528.663,414.657C525.119,410.892 520.55,408.975 515.616,407.828C511.607,406.892 507.521,406.642 503.423,406.473C499.835,406.326 496.233,406.295 492.657,406.029C488.905,405.754 485.269,405.012 481.726,403.912" style="fill:rgb(241,90,36);fill-rule:nonzero;"/>
    </g>
    <g transform="matrix(4.06614,-0.909756,-0.909756,-4.06614,-1523.61,2385.23)">
        <path d="M480.061,405.38C478.93,406.03 477.812,406.721 476.737,407.436L480.061,412.433C481.027,411.789 482.034,411.166 483.051,410.581L480.061,405.38Z" style="fill:rgb(0,114,206);fill-rule:nonzero;"/>
    </g>
    <g transform="matrix(4.16667,0,0,4.16667,-1943.89,-1395.3)">
        <path d="M514.05,404.581C514.799,404.714 515.548,404.866 516.298,405.041C522.679,406.525 527.303,408.971 530.848,412.735C532.598,414.596 534.125,416.573 535.428,418.664C536.321,414.644 538.397,411.034 541.615,407.975C545.65,404.134 550.461,401.56 556.204,400.187C555.451,399.889 554.712,399.575 553.987,399.247C548.363,396.704 544.122,393.551 541.021,389.607C538.915,386.933 537.372,383.983 536.398,380.778C533.538,386.64 529.652,392.018 524.803,396.816C521.414,400.165 517.869,402.728 514.05,404.581M542.887,477.545C542.51,477.545 542.128,477.529 541.741,477.493C538.138,477.153 536.013,474.791 536.052,471.174C536.053,470.79 536.071,470.385 536.112,469.969C536.154,469.428 536.034,468.401 534.71,468.226C534.499,468.192 533.845,468.533 533.612,469.316C533.43,469.935 533.374,470.479 533.444,470.968C533.543,471.543 533.768,472.813 532.904,474.022C532.513,474.571 531.772,475.269 530.466,475.474C529.402,475.636 528.394,475.388 527.615,474.777C526.388,473.811 526.267,472.413 526.221,471.887C526.213,471.804 526.205,471.721 526.198,471.638L525.811,471.852L526.163,471.028C526.118,469.547 526.357,468.048 526.883,466.446C527.656,464.104 528.67,461.92 529.651,459.808C529.944,459.175 530.237,458.543 530.523,457.908C533.737,450.782 535.213,444.31 535.035,438.121C534.786,429.661 531.987,422.702 526.479,416.848C523.782,413.984 520.114,412.089 514.937,410.885C511.102,409.99 507.085,409.762 503.3,409.604C502.129,409.557 500.955,409.521 499.781,409.486C497.38,409.414 494.898,409.339 492.435,409.156C488.64,408.877 484.737,408.122 480.837,406.912L481.114,406.02C481.079,406.011 481.044,406 481.01,405.99L482.711,400.236C484.183,400.672 485.564,400.974 486.932,401.158C494.256,402.163 501.389,402.874 508.19,400.524C512.669,398.974 516.724,396.365 520.584,392.551C526.113,387.079 530.243,380.786 532.861,373.85C533.888,371.122 534.138,368.084 534.306,365.205C534.734,357.762 534.623,349.702 533.959,339.848C533.629,338.407 533.84,337.193 534.585,336.239C535.263,335.37 536.318,334.871 537.477,334.871C538.079,334.879 540.91,335.11 541.224,338.964C541.444,341.518 541.648,344.084 541.827,346.657C542.289,353.346 542.119,360.484 541.291,369.125C540.654,375.803 542.109,381.29 545.737,385.897C548.263,389.11 551.67,391.614 556.459,393.78C561.268,395.955 566.785,397.41 573.327,398.23C578.626,398.901 582.95,399.132 586.964,398.956C592.944,398.692 598.904,397.421 605.186,395.068L605.247,395.037C605.772,394.79 606.999,394.209 608.438,394.771C609.33,395.12 610.031,395.827 610.409,396.761C610.789,397.674 610.789,398.682 610.4,399.572C609.757,401.041 608.372,401.549 607.78,401.766C601.272,404.185 595.758,405.561 590.337,406.13C584.393,406.749 578.351,406.697 571.864,405.974C570.947,405.872 570.03,405.736 569.113,405.6C567.048,405.292 565.099,405.005 563.232,405.152C555.916,405.742 550.198,408.088 545.75,412.322C541.563,416.303 540.116,421.168 541.328,427.196C542.107,431.047 542.807,435.226 542.656,439.667C542.465,445.286 541.091,451.114 538.332,458.009C537.882,459.13 537.4,460.237 536.915,461.324C539.036,461.778 540.936,463.052 542.21,465.052C542.991,466.273 543.34,467.66 543.242,469.17C543.208,469.619 543.179,470.039 543.153,470.46L543.164,470.46C544.09,470.451 545.129,470.213 546.23,469.961L546.649,469.865C547.071,469.739 548.328,469.371 549.601,470.117C550.404,470.589 550.966,471.371 551.182,472.32C551.636,474.374 550.363,476.276 548.223,476.765L548.006,476.813C546.454,477.16 544.73,477.545 542.887,477.545" style="fill:rgb(0,114,206);fill-rule:nonzero;"/>
    </g>
    <g transform="matrix(4.08224,-0.834515,-0.834515,-4.08224,-1561.34,2355.79)">
        <path d="M480.303,406.306C479.178,406.907 478.073,407.561 477.021,408.249L480.303,413.271C481.208,412.68 482.159,412.116 483.13,411.599L480.303,406.306Z" style="fill:rgb(0,114,206);fill-rule:nonzero;"/>
    </g>
    <g transform="matrix(4.16667,0,0,4.16667,-1943.89,-1445.9)">
        <path d="M477.157,417.779C475.801,417.266 474.373,416.662 472.913,415.985C471.768,415.456 470.666,414.877 469.6,414.316L468.72,413.856C467.683,413.402 467.013,412.709 466.703,411.785C466.4,410.883 466.506,409.908 467,409.04C467.942,407.425 469.819,406.781 471.583,407.445C472.011,407.605 472.348,407.799 472.594,407.939L472.728,408.015C475.344,409.441 477.533,410.49 479.606,411.307L479.269,412.163C479.273,412.165 479.276,412.166 479.28,412.168L477.157,417.779Z" style="fill:rgb(0,114,206);fill-rule:nonzero;"/>
    </g>
</svg>
