<?xml version="1.0" encoding="UTF-8" standalone="no"?>
<!DOCTYPE svg PUBLIC "-//W3C//DTD SVG 1.1//EN" "http://www.w3.org/Graphics/SVG/1.1/DTD/svg11.dtd">
<svg width="100%" height="100%" viewBox="0 0 722 464" version="1.1" xmlns="http://www.w3.org/2000/svg" xmlns:xlink="http://www.w3.org/1999/xlink" xml:space="preserve" xmlns:serif="http://www.serif.com/" style="fill-rule:evenodd;clip-rule:evenodd;stroke-linejoin:round;stroke-miterlimit:2;">
    <g transform="matrix(4.16667,0,0,4.16667,-3259.95,-2665.62)">
        <path d="M805.713,658.959C805.712,656.536 805.712,654.114 805.713,651.692C805.11,652.178 804.507,652.664 803.904,653.151C803.507,652.605 803.11,652.06 802.713,651.515C803.776,650.695 804.839,649.879 805.902,649.061C806.602,649.049 807.3,649.037 807.999,649.025L807.999,658.928C807.236,658.938 806.475,658.947 805.713,658.959" style="fill:rgb(0,114,206);fill-rule:nonzero;"/>
    </g>
    <g transform="matrix(4.16667,0,0,4.16667,-3259.95,-2573.43)">
        <path d="M786.709,646.226C785.101,646.226 783.77,644.952 783.713,643.331C783.654,641.676 784.949,640.287 786.605,640.228C798.793,639.799 812.057,639.633 827.166,639.73C828.823,639.741 830.158,641.092 830.147,642.748C830.137,644.399 828.796,645.73 827.147,645.73L827.129,645.73C812.111,645.638 798.921,645.797 786.816,646.224C786.78,646.225 786.745,646.226 786.709,646.226" style="fill:rgb(241,90,36);fill-rule:nonzero;"/>
    </g>
    <g transform="matrix(4.16667,0,0,4.16667,-3259.95,-2663.99)">
        <path d="M844.527,658.742L844.527,656.799C845.787,655.666 847.047,654.537 848.306,653.412C848.547,653.186 848.734,652.957 848.881,652.721C849.021,652.482 849.106,652.219 849.101,651.922C849.097,651.575 848.99,651.28 848.772,651.062C848.552,650.839 848.261,650.722 847.896,650.715C847.514,650.707 847.199,650.834 846.958,651.101C846.722,651.367 846.568,651.724 846.525,652.168C845.79,652.049 845.055,651.93 844.321,651.81C844.378,651.313 844.511,650.87 844.725,650.482C844.939,650.096 845.209,649.769 845.54,649.502C845.87,649.235 846.244,649.031 846.67,648.9C847.092,648.765 847.549,648.709 848.019,648.719C848.467,648.73 848.898,648.802 849.32,648.933C849.74,649.066 850.113,649.258 850.443,649.517C850.775,649.775 851.033,650.099 851.23,650.48C851.427,650.864 851.525,651.31 851.525,651.819C851.525,652.169 851.48,652.484 851.388,652.764C851.294,653.047 851.176,653.301 851.011,653.539C850.849,653.773 850.664,653.996 850.463,654.197C850.259,654.399 850.047,654.598 849.827,654.799C849.078,655.455 848.33,656.113 847.58,656.774C848.899,656.803 850.219,656.832 851.539,656.862L851.539,658.885C849.201,658.834 846.865,658.786 844.527,658.742" style="fill:rgb(0,114,206);fill-rule:nonzero;"/>
    </g>
    <g transform="matrix(4.16667,0,0,4.16667,-3259.95,-2572.29)">
        <path d="M868.909,646.119C868.888,646.119 868.867,646.119 868.847,646.118L868.43,646.11C855.322,645.84 841.768,645.561 828.449,645.467C826.793,645.455 825.459,644.102 825.471,642.445C825.482,640.796 826.823,639.467 828.471,639.467L828.492,639.467C841.851,639.561 855.426,639.841 868.553,640.111L868.97,640.12C870.626,640.154 871.941,641.524 871.907,643.181C871.874,644.816 870.537,646.119 868.909,646.119" style="fill:rgb(241,90,36);fill-rule:nonzero;"/>
    </g>
    <g transform="matrix(4.16667,0,0,4.16667,-3259.95,-2653.99)">
        <path d="M893.342,654.679C893.341,655.2 893.238,655.649 893.02,656.026C892.811,656.401 892.524,656.709 892.178,656.951C891.831,657.191 891.442,657.367 891.007,657.481C890.572,657.592 890.139,657.645 889.686,657.637C889.251,657.629 888.819,657.57 888.405,657.461C887.988,657.35 887.608,657.194 887.268,656.985C886.924,656.77 886.625,656.506 886.371,656.18C886.115,655.854 885.924,655.465 885.795,655.01C886.508,654.842 887.22,654.674 887.933,654.504C888.024,654.823 888.209,655.098 888.493,655.348C888.776,655.592 889.138,655.72 889.574,655.73C889.739,655.73 889.906,655.716 890.075,655.673C890.24,655.634 890.403,655.562 890.528,655.473C890.657,655.379 890.767,655.259 890.857,655.11C890.943,654.957 890.986,654.77 890.987,654.545C890.991,654.301 890.932,654.1 890.816,653.934C890.699,653.77 890.551,653.637 890.363,653.539C890.178,653.439 889.967,653.367 889.727,653.323C889.488,653.27 889.252,653.25 889.014,653.244C888.809,653.241 888.603,653.236 888.397,653.231L888.397,651.581C888.62,651.586 888.845,651.592 889.069,651.598C889.287,651.603 889.498,651.594 889.699,651.565C889.903,651.538 890.08,651.485 890.24,651.401C890.397,651.315 890.527,651.205 890.623,651.064C890.725,650.923 890.764,650.728 890.767,650.496C890.767,650.15 890.646,649.884 890.398,649.7C890.152,649.512 889.869,649.414 889.548,649.407C889.217,649.397 888.932,649.49 888.693,649.675C888.448,649.864 888.293,650.119 888.22,650.441C887.507,650.26 886.795,650.08 886.082,649.899C886.201,649.493 886.377,649.145 886.617,648.85C886.857,648.555 887.137,648.311 887.459,648.116C887.782,647.922 888.139,647.778 888.522,647.684C888.903,647.591 889.295,647.549 889.699,647.56C890.128,647.57 890.547,647.639 890.951,647.754C891.36,647.875 891.722,648.047 892.041,648.282C892.363,648.514 892.621,648.801 892.815,649.145C893.009,649.488 893.108,649.885 893.11,650.346C893.111,650.875 892.954,651.323 892.651,651.68C892.341,652.037 891.955,652.27 891.479,652.39L891.479,652.43C891.752,652.495 892.006,652.607 892.233,652.75C892.462,652.897 892.654,653.063 892.821,653.262C892.987,653.457 893.112,653.675 893.205,653.916C893.292,654.155 893.344,654.408 893.342,654.679" style="fill:rgb(0,114,206);fill-rule:nonzero;"/>
    </g>
    <g transform="matrix(4.16667,0,0,4.16667,-3259.95,-2566.71)">
        <path d="M910.67,645.44L910.651,645.44C897.646,645.359 885.151,645.115 870.169,644.804C868.513,644.77 867.198,643.4 867.232,641.743C867.266,640.108 868.603,638.805 870.231,638.805C870.251,638.805 870.273,638.805 870.294,638.806C885.251,639.116 897.723,639.359 910.689,639.44C912.346,639.451 913.681,640.802 913.67,642.459C913.659,644.109 912.318,645.44 910.67,645.44" style="fill:rgb(241,90,36);fill-rule:nonzero;"/>
    </g>
    <g transform="matrix(4.16667,0,0,4.16667,-3259.95,-2651.84)">
        <path d="M932.035,649.92L931.994,649.92C931.226,651.106 930.459,652.287 929.692,653.469C930.473,653.458 931.254,653.446 932.035,653.435C932.034,652.264 932.034,651.092 932.035,649.92M934.17,655.223L934.17,657.076C933.454,657.088 932.737,657.1 932.019,657.11C932.02,656.493 932.02,655.876 932.019,655.26C930.5,655.283 928.98,655.303 927.46,655.316L927.46,653.428C928.775,651.498 930.09,649.565 931.404,647.624C932.321,647.607 933.239,647.589 934.156,647.568L934.156,653.397C934.603,653.387 935.051,653.379 935.499,653.369L935.499,655.197C935.056,655.207 934.613,655.215 934.17,655.223" style="fill:rgb(0,114,206);fill-rule:nonzero;"/>
    </g>
    <g transform="matrix(4.16667,0,0,4.16667,-3259.95,-2566.51)">
        <path d="M918.755,645.419C916.535,645.419 914.277,645.412 911.976,645.4C910.318,645.392 908.983,644.041 908.991,642.385C909,640.733 910.342,639.4 911.991,639.4L912.007,639.4C927.018,639.474 940.21,639.3 952.318,638.85C954.003,638.778 955.365,640.081 955.428,641.736C955.489,643.392 954.197,644.784 952.541,644.846C942.207,645.23 931.098,645.419 918.755,645.419" style="fill:rgb(241,90,36);fill-rule:nonzero;"/>
    </g>
    <g transform="matrix(4.16667,0,0,4.16667,-3259.95,-1884.04)">
        <path d="M810.426,563.238L810.387,563.238C808.99,563.22 807.592,563.196 806.196,563.167C804.539,563.133 803.225,561.76 803.26,560.104C803.294,558.469 804.63,557.168 806.258,557.168C806.28,557.168 806.301,557.168 806.322,557.169C807.701,557.198 809.084,557.22 810.463,557.238C812.119,557.259 813.446,558.619 813.425,560.276C813.404,561.92 812.065,563.238 810.426,563.238" style="fill:rgb(0,114,206);fill-rule:nonzero;"/>
    </g>
    <g transform="matrix(4.16667,0,0,4.16667,-3259.95,-2321.63)">
        <path d="M818.571,668.313L818.062,668.313C816.405,668.312 815.063,666.968 815.064,665.311C815.065,663.655 816.408,662.313 818.064,662.313L818.066,662.313C820.082,662.311 822.12,662.308 824.147,662.293L824.147,563.209C814.016,563.145 804.843,563.272 796.192,563.619C791.966,563.793 788.389,567.587 788.387,571.903L788.387,653.602C788.388,657.915 791.965,661.709 796.198,661.886C797.405,661.934 798.618,661.977 799.831,662.018C801.487,662.074 802.784,663.461 802.728,665.117C802.672,666.773 801.247,668.043 799.63,668.014C798.403,667.973 797.178,667.93 795.952,667.881C788.471,667.567 782.388,661.162 782.387,653.602L782.387,571.901C782.391,564.338 788.474,557.934 795.947,557.624C805.541,557.238 815.753,557.113 827.179,557.236C828.824,557.253 830.147,558.591 830.147,560.236L830.147,665.268C830.147,666.913 828.823,668.251 827.178,668.268C824.308,668.297 821.439,668.313 818.571,668.313" style="fill:rgb(0,114,206);fill-rule:nonzero;"/>
    </g>
    <g transform="matrix(4.16667,0,0,4.16667,-3259.95,-2321.32)">
        <path d="M830.147,563.201L830.147,662.157C842.072,661.986 854.143,661.575 865.908,661.158L865.908,564.2C854.141,563.782 842.072,563.371 830.147,563.201M868.908,664.054L868.918,664.054L868.908,664.054ZM827.147,668.195C826.357,668.195 825.599,667.884 825.038,667.328C824.467,666.764 824.147,665.997 824.147,665.195L824.147,560.163C824.147,559.362 824.467,558.594 825.037,558.03C825.607,557.467 826.354,557.158 827.179,557.163C841.137,557.313 855.309,557.818 869.014,558.306C870.628,558.364 871.908,559.689 871.908,561.305L871.908,664.054C871.908,665.669 870.628,666.994 869.014,667.052L868.892,667.055C855.227,667.542 841.096,668.045 827.179,668.195L827.147,668.195Z" style="fill:rgb(0,114,206);fill-rule:nonzero;"/>
    </g>
    <g transform="matrix(4.16667,0,0,4.16667,-3259.95,-2321.33)">
        <path d="M871.908,564.415L871.908,660.947C883.666,660.529 895.727,660.12 907.67,659.951L907.67,565.41C895.728,565.241 883.668,564.833 871.908,564.415M868.908,667.056C868.133,667.056 867.385,666.755 866.825,666.215C866.239,665.649 865.908,664.87 865.908,664.056L865.908,561.307C865.908,560.492 866.239,559.713 866.825,559.147C867.41,558.583 868.208,558.299 869.014,558.309C882.686,558.796 896.82,559.3 910.702,559.447C912.346,559.465 913.67,560.803 913.67,562.447L913.67,662.914C913.67,664.559 912.346,665.896 910.702,665.914C896.816,666.062 882.683,666.566 869.014,667.054C868.979,667.055 868.943,667.056 868.908,667.056" style="fill:rgb(0,114,206);fill-rule:nonzero;"/>
    </g>
    <g transform="matrix(4.16667,0,0,4.16667,-3259.95,-2321.44)">
        <path d="M913.67,565.499L913.67,659.913C915.67,659.898 917.678,659.896 919.665,659.895C919.734,659.881 919.73,659.895 919.761,659.895C928.032,659.895 935.654,656.834 941.232,651.27C946.52,645.995 949.432,638.882 949.43,631.241L949.43,594.172C949.432,586.529 946.52,579.415 941.231,574.14C935.633,568.557 927.951,565.519 919.671,565.518C917.674,565.52 915.67,565.515 913.67,565.499M910.67,665.939C909.88,665.939 909.122,665.628 908.561,665.072C907.99,664.509 907.67,663.741 907.67,662.939L907.67,562.473C907.67,561.672 907.99,560.903 908.56,560.34C909.13,559.777 909.927,559.442 910.701,559.473C913.686,559.504 916.669,559.516 919.658,559.518L919.77,559.518C929.634,559.518 938.758,563.199 945.468,569.892C951.894,576.301 955.432,584.925 955.43,594.173L955.43,631.24C955.432,640.486 951.895,649.108 945.47,655.518C938.759,662.212 929.632,665.895 919.761,665.895L919.659,665.895C916.676,665.886 913.689,665.908 910.702,665.939L910.67,665.939Z" style="fill:rgb(0,114,206);fill-rule:nonzero;"/>
    </g>
</svg>
