<?xml version="1.0" encoding="UTF-8" standalone="no"?>
<!DOCTYPE svg PUBLIC "-//W3C//DTD SVG 1.1//EN" "http://www.w3.org/Graphics/SVG/1.1/DTD/svg11.dtd">
<svg width="100%" height="100%" viewBox="0 0 449 713" version="1.1" xmlns="http://www.w3.org/2000/svg" xmlns:xlink="http://www.w3.org/1999/xlink" xml:space="preserve" xmlns:serif="http://www.serif.com/" style="fill-rule:evenodd;clip-rule:evenodd;stroke-linejoin:round;stroke-miterlimit:2;">
    <g transform="matrix(4.16667,0,0,4.16667,-3364.6,-3637.03)">
        <path d="M892.359,890.341C888.36,890.341 884.11,890.22 879.522,889.979C877.867,889.892 876.596,888.48 876.683,886.825C876.771,885.169 878.193,883.886 879.837,883.987C891.231,884.587 900.45,884.428 908.85,883.489C910.496,883.298 911.979,884.49 912.165,886.138C912.348,887.784 911.163,889.268 909.516,889.452C904.2,890.047 898.585,890.341 892.359,890.341" style="fill:rgb(241,90,36);fill-rule:nonzero;"/>
    </g>
    <g transform="matrix(4.16667,0,0,4.16667,-3364.6,-3640.91)">
        <path d="M872.928,890.495C872.859,890.495 872.788,890.493 872.718,890.488C871.371,890.394 870.027,890.295 868.68,890.191C867.028,890.065 865.79,888.623 865.917,886.972C866.043,885.319 867.483,884.075 869.137,884.209C870.47,884.31 871.801,884.41 873.132,884.502C874.785,884.617 876.032,886.05 875.918,887.702C875.808,889.285 874.49,890.495 872.928,890.495" style="fill:rgb(241,90,36);fill-rule:nonzero;"/>
    </g>
    <g transform="matrix(4.16667,0,0,4.16667,-3364.6,-3649.45)">
        <path d="M863.011,891.783C862.93,891.783 862.848,891.78 862.766,891.773L861.212,891.647C858.23,891.405 855.246,891.162 852.264,890.939C850.612,890.816 849.372,889.377 849.496,887.724C849.619,886.072 851.068,884.837 852.711,884.957C855.706,885.179 858.702,885.424 861.698,885.667L863.25,885.793C864.902,885.927 866.132,887.374 865.998,889.025C865.871,890.595 864.558,891.783 863.011,891.783" style="fill:rgb(241,90,36);fill-rule:nonzero;"/>
    </g>
    <g transform="matrix(4.16667,0,0,4.16667,-3364.6,-3494.22)">
        <path d="M892.402,873.759C881.888,873.759 871.386,873.118 861.136,872.493C856.638,872.219 851.988,871.936 847.423,871.711C845.768,871.63 844.493,870.223 844.574,868.569C844.654,866.914 846.05,865.607 847.716,865.719C852.318,865.945 856.986,866.229 861.502,866.504C875.492,867.359 889.962,868.239 904.099,867.452C905.74,867.373 907.17,868.626 907.261,870.28C907.354,871.935 906.088,873.351 904.433,873.443C900.43,873.666 896.415,873.759 892.402,873.759" style="fill:rgb(241,90,36);fill-rule:nonzero;"/>
    </g>
    <g transform="matrix(4.16667,0,0,4.16667,-3364.6,-3344.14)">
        <path d="M892.391,855.43C881.917,855.43 871.407,855.001 861.178,854.583C855.077,854.334 848.768,854.076 842.575,853.915C840.918,853.872 839.611,852.494 839.654,850.838C839.697,849.208 841.031,847.916 842.651,847.916C842.678,847.916 842.704,847.916 842.731,847.917C848.969,848.08 855.3,848.338 861.422,848.588C873.848,849.095 886.698,849.62 899.288,849.363C899.309,849.362 899.33,849.362 899.351,849.362C900.98,849.362 902.316,850.664 902.349,852.3C902.383,853.956 901.068,855.327 899.412,855.361C897.077,855.409 894.734,855.43 892.391,855.43" style="fill:rgb(241,90,36);fill-rule:nonzero;"/>
    </g>
    <g transform="matrix(4.16667,0,0,4.16667,-3364.6,-3193.83)">
        <path d="M892.356,837.046C881.954,837.046 871.436,836.829 861.243,836.618C853.526,836.459 845.547,836.294 837.708,836.226C836.051,836.211 834.719,834.857 834.734,833.199C834.749,831.552 836.088,830.226 837.733,830.226L837.76,830.226C845.635,830.295 853.632,830.46 861.367,830.619C872.207,830.843 883.427,831.079 894.422,831.043L894.431,831.043C896.085,831.043 897.426,832.38 897.431,834.034C897.436,835.692 896.096,837.038 894.44,837.043C893.747,837.045 893.05,837.046 892.356,837.046" style="fill:rgb(241,90,36);fill-rule:nonzero;"/>
    </g>
    <g transform="matrix(4.16667,0,0,4.16667,-3364.6,-3043.08)">
        <path d="M889.514,818.555C879.435,818.555 869.355,818.55 859.276,818.546L832.818,818.537C831.16,818.537 829.818,817.194 829.818,815.537C829.818,813.88 831.161,812.537 832.818,812.537L859.278,812.546C869.357,812.55 879.436,812.555 889.514,812.555C891.171,812.555 892.514,813.898 892.514,815.555C892.514,817.212 891.171,818.555 889.514,818.555" style="fill:rgb(241,90,36);fill-rule:nonzero;"/>
    </g>
    <g transform="matrix(4.16667,0,0,4.16667,-3364.6,-2892.03)">
        <path d="M830.252,800.812C829.464,800.812 828.678,800.811 827.891,800.808C826.234,800.803 824.896,799.456 824.9,797.798C824.905,796.145 826.248,794.808 827.9,794.808L827.91,794.808C838.996,794.854 850.331,794.619 861.272,794.403C868.905,794.251 876.799,794.095 884.57,794.028L884.598,794.028C886.242,794.028 887.582,795.354 887.597,797.001C887.611,798.659 886.279,800.013 884.623,800.028C876.884,800.095 869.008,800.25 861.391,800.402C851.189,800.603 840.663,800.812 830.252,800.812" style="fill:rgb(241,90,36);fill-rule:nonzero;"/>
    </g>
    <g transform="matrix(4.16667,0,0,4.16667,-3364.6,-2740.82)">
        <path d="M830.173,783.045C827.751,783.045 825.332,783.023 822.918,782.972C821.262,782.938 819.946,781.566 819.982,779.91C820.015,778.275 821.352,776.973 822.98,776.973C823,776.973 823.022,776.973 823.043,776.974C835.719,777.234 848.669,776.721 861.189,776.22C867.22,775.98 873.457,775.731 879.602,775.57C881.247,775.504 882.637,776.835 882.679,778.491C882.722,780.148 881.414,781.525 879.758,781.568C873.654,781.727 867.439,781.976 861.428,782.215C851.187,782.624 840.66,783.045 830.173,783.045" style="fill:rgb(241,90,36);fill-rule:nonzero;"/>
    </g>
    <g transform="matrix(4.16667,0,0,4.16667,-3364.6,-2588.79)">
        <path d="M830.21,765.082C826.102,765.082 821.992,764.985 817.895,764.754C816.24,764.66 814.975,763.244 815.068,761.59C815.161,759.935 816.6,758.683 818.232,758.764C832.476,759.567 847.04,758.691 861.126,757.844C865.545,757.578 870.113,757.303 874.615,757.083C876.271,756.98 877.678,758.278 877.758,759.933C877.839,761.588 876.564,762.995 874.908,763.075C870.44,763.294 865.889,763.567 861.486,763.833C851.233,764.45 840.728,765.082 830.21,765.082" style="fill:rgb(241,90,36);fill-rule:nonzero;"/>
    </g>
    <g transform="matrix(4.16667,0,0,4.16667,-3364.6,-2435.74)">
        <path d="M830.219,746.874C824.419,746.874 818.608,746.618 812.811,745.965C811.164,745.778 809.98,744.294 810.165,742.647C810.352,741.002 811.839,739.829 813.483,740.002C829.24,741.781 845.405,740.482 861.033,739.226C863.897,738.995 866.759,738.766 869.622,738.553C871.281,738.456 872.714,739.671 872.836,741.323C872.958,742.976 871.718,744.414 870.066,744.537C867.215,744.748 864.365,744.978 861.514,745.206C851.248,746.031 840.756,746.874 830.219,746.874" style="fill:rgb(241,90,36);fill-rule:nonzero;"/>
    </g>
    <g transform="matrix(4.16667,0,0,4.16667,-3364.6,-3041.55)">
        <path d="M810.508,901.086C810.242,901.086 809.972,901.05 809.704,900.976C808.108,900.532 807.172,898.879 807.615,897.283C815.126,870.218 822.766,841.26 830.154,813.254C837.272,786.272 844.633,758.369 851.874,732.175C852.315,730.578 853.967,729.639 855.566,730.083C857.162,730.524 858.099,732.177 857.657,733.774C850.425,759.934 843.069,787.818 835.955,814.785C828.563,842.809 820.918,871.786 813.397,898.887C813.029,900.215 811.821,901.086 810.508,901.086" style="fill:rgb(0,114,206);fill-rule:nonzero;"/>
    </g>
    <g transform="matrix(4.16667,0,0,4.16667,-3364.6,-3041.51)">
        <path d="M867.834,899.984C867.581,899.984 867.324,899.952 867.067,899.884C865.466,899.462 864.509,897.821 864.931,896.218C872.173,868.737 879.534,842.083 886.652,816.305C894.039,789.557 901.678,761.898 909.188,733.297C909.609,731.694 911.248,730.731 912.852,731.157C914.454,731.578 915.412,733.217 914.991,734.82C907.472,763.459 899.828,791.136 892.437,817.902C885.322,843.663 877.966,870.3 870.733,897.748C870.378,899.093 869.163,899.984 867.834,899.984" style="fill:rgb(0,114,206);fill-rule:nonzero;"/>
    </g>
</svg>
