<?xml version="1.0" encoding="UTF-8" standalone="no"?>
<!DOCTYPE svg PUBLIC "-//W3C//DTD SVG 1.1//EN" "http://www.w3.org/Graphics/SVG/1.1/DTD/svg11.dtd">
<svg width="100%" height="100%" viewBox="0 0 516 631" version="1.1" xmlns="http://www.w3.org/2000/svg" xmlns:xlink="http://www.w3.org/1999/xlink" xml:space="preserve" xmlns:serif="http://www.serif.com/" style="fill-rule:evenodd;clip-rule:evenodd;stroke-linejoin:round;stroke-miterlimit:2;">
    <g transform="matrix(4.16667,0,0,4.16667,-1986.62,-664.858)">
        <path d="M537.99,206.538C534.161,206.538 530.562,207.987 527.806,210.65C524.809,213.547 523.158,217.507 523.158,221.801C523.157,226.09 524.808,230.089 527.807,233.06C530.672,235.9 534.445,237.459 538.444,237.459C538.491,237.459 538.538,237.459 538.586,237.458C547.122,237.381 554.066,230.539 554.067,222.206C554.065,213.863 547.087,206.839 538.511,206.547C538.337,206.541 538.163,206.538 537.99,206.538M538.441,243.459C532.85,243.459 527.581,241.284 523.584,237.322C519.439,233.215 517.157,227.702 517.158,221.8C517.159,215.864 519.46,210.372 523.637,206.336C527.698,202.412 533.057,200.351 538.716,200.551C550.486,200.951 560.065,210.665 560.067,222.205L560.067,222.206C560.066,233.818 550.454,243.351 538.64,243.458C538.574,243.459 538.508,243.459 538.441,243.459" style="fill:rgb(0,114,206);fill-rule:nonzero;"/>
    </g>
    <g transform="matrix(4.16667,0,0,4.16667,-1986.62,46.0625)">
        <path d="M518.149,139.767C516.572,139.767 515.25,138.537 515.157,136.942C515.061,135.288 516.324,133.869 517.977,133.772C519.21,133.701 520.44,133.624 521.671,133.543C523.334,133.422 524.753,134.686 524.863,136.338C524.972,137.992 523.721,139.42 522.068,139.53C520.821,139.613 519.575,139.689 518.327,139.762C518.267,139.765 518.208,139.767 518.149,139.767" style="fill:rgb(0,114,206);fill-rule:nonzero;"/>
    </g>
    <g transform="matrix(4.16667,0,0,4.16667,-1986.62,-228.1)">
        <path d="M503.857,206.116C503.228,206.116 502.614,205.918 502.103,205.55C500.856,204.65 500.856,204.65 500.855,198.642L500.857,171.648C500.86,150.371 517.794,133.009 538.603,132.944C548.836,132.872 558.448,136.825 565.614,143.968C572.55,150.883 576.37,160.04 576.369,169.752L576.369,199.042C576.369,200.681 575.052,202.017 573.413,202.042C561.867,202.21 550.078,203.158 538.676,204.075C535.215,204.353 531.754,204.632 528.294,204.889C526.62,205.002 525.201,203.772 525.079,202.122C524.955,200.47 526.194,199.03 527.846,198.907C531.296,198.649 534.746,198.372 538.196,198.095C548.729,197.247 559.591,196.373 570.369,196.101L570.369,169.752C570.37,161.645 567.176,153.998 561.378,148.218C555.377,142.235 547.337,138.944 538.733,138.944L538.623,138.944C521.11,138.999 506.86,153.67 506.857,171.648L506.856,185.994C506.856,192.408 506.855,197.199 506.855,200.054C508.461,200.012 510.107,199.955 511.824,199.883C513.463,199.813 514.878,201.097 514.948,202.753C515.018,204.408 513.733,205.806 512.078,205.877C509.207,205.999 506.532,206.077 503.902,206.116L503.857,206.116Z" style="fill:rgb(0,114,206);fill-rule:nonzero;"/>
    </g>
    <g transform="matrix(4.16667,0,0,4.16667,-1986.62,-807.388)">
        <path d="M565.681,248.636C564.854,248.636 564.031,248.296 563.438,247.629C562.337,246.391 562.449,244.495 563.687,243.394C568.117,239.454 573.138,234.99 578.073,230.497C579.297,229.381 581.193,229.471 582.311,230.697C583.426,231.922 583.337,233.82 582.112,234.935C577.152,239.45 572.116,243.928 567.673,247.878C567.102,248.386 566.39,248.636 565.681,248.636" style="fill:rgb(241,90,36);fill-rule:nonzero;"/>
    </g>
    <g transform="matrix(4.16667,0,0,4.16667,-1986.62,-862.096)">
        <path d="M583.539,252.633C585.033,247.949 586.526,243.246 588.019,238.514C583.153,239.768 578.288,240.893 573.422,241.944C576.794,245.537 580.167,249.094 583.539,252.633" style="fill:rgb(241,90,36);fill-rule:nonzero;"/>
    </g>
    <g transform="matrix(4.16667,0,0,4.16667,-1986.62,-818.288)">
        <path d="M511.545,250.255C510.805,250.255 510.063,249.983 509.482,249.433C504.149,244.381 499.704,240.177 495.094,235.906C493.879,234.78 493.806,232.882 494.932,231.666C496.058,230.451 497.956,230.378 499.172,231.504C503.805,235.797 508.263,240.012 513.609,245.077C514.812,246.217 514.863,248.115 513.724,249.318C513.134,249.941 512.341,250.255 511.545,250.255" style="fill:rgb(241,90,36);fill-rule:nonzero;"/>
    </g>
    <g transform="matrix(4.16667,0,0,4.16667,-1986.62,-873.546)">
        <path d="M503.805,242.811C498.939,241.694 494.072,240.65 489.205,239.737C490.7,244.517 492.194,249.329 493.687,254.158C497.059,250.352 500.432,246.563 503.805,242.811" style="fill:rgb(241,90,36);fill-rule:nonzero;"/>
    </g>
    <g transform="matrix(4.16667,0,0,4.16667,-1986.62,-1007.75)">
        <path d="M538.613,275.619C536.956,275.619 535.613,274.276 535.613,272.619L535.613,253.486C535.613,251.829 536.956,250.486 538.613,250.486C540.27,250.486 541.613,251.829 541.613,253.486L541.613,272.619C541.613,274.276 540.27,275.619 538.613,275.619" style="fill:rgb(241,90,36);fill-rule:nonzero;"/>
    </g>
    <g transform="matrix(4.16667,0,0,4.16667,-1986.62,-1124.1)">
        <path d="M546.69,284.244C543.998,279.466 541.304,274.643 538.613,269.785C535.919,274.253 533.228,278.758 530.535,283.305C535.92,283.607 541.305,283.941 546.69,284.244" style="fill:rgb(241,90,36);fill-rule:nonzero;"/>
    </g>
    <g transform="matrix(4.16667,0,0,4.16667,-1986.62,-536.383)">
        <path d="M588.81,209.499L588.802,209.499C582.428,209.481 576.055,209.478 569.679,209.481L569.677,209.481C568.021,209.481 566.678,208.14 566.677,206.483C566.676,204.827 568.018,203.482 569.675,203.481C576.053,203.477 582.437,203.48 588.818,203.499C590.475,203.504 591.815,204.851 591.81,206.507C591.805,208.161 590.463,209.499 588.81,209.499" style="fill:rgb(241,90,36);fill-rule:nonzero;"/>
    </g>
    <g transform="matrix(4.16667,0,0,4.16667,-1986.62,-536.338)">
        <path d="M586.447,214.41C591.11,211.806 595.772,209.203 600.435,206.537C595.772,203.818 591.11,201.18 586.447,198.555L586.447,214.41Z" style="fill:rgb(241,90,36);fill-rule:nonzero;"/>
    </g>
    <g transform="matrix(4.16667,0,0,4.16667,-1986.62,-535.383)">
        <path d="M503.201,209.378C498.268,209.378 493.338,209.371 488.406,209.358C486.749,209.355 485.41,208.008 485.414,206.351C485.418,204.696 486.761,203.358 488.414,203.358L488.422,203.358C494.795,203.376 501.17,203.383 507.545,203.376L507.547,203.376C509.203,203.376 510.546,204.718 510.547,206.374C510.548,208.03 509.206,209.375 507.549,209.376C506.1,209.377 504.65,209.378 503.201,209.378" style="fill:rgb(241,90,36);fill-rule:nonzero;"/>
    </g>
    <g transform="matrix(4.16667,0,0,4.16667,-1986.62,-535.417)">
        <path d="M490.779,198.144C486.116,200.904 481.452,203.65 476.789,206.316C481.452,209.037 486.116,211.818 490.779,214.6L490.779,198.144Z" style="fill:rgb(241,90,36);fill-rule:nonzero;"/>
    </g>
</svg>
