<?xml version="1.0" encoding="UTF-8" standalone="no"?>
<!DOCTYPE svg PUBLIC "-//W3C//DTD SVG 1.1//EN" "http://www.w3.org/Graphics/SVG/1.1/DTD/svg11.dtd">
<svg width="100%" height="100%" viewBox="0 0 685 359" version="1.1" xmlns="http://www.w3.org/2000/svg" xmlns:xlink="http://www.w3.org/1999/xlink" xml:space="preserve" xmlns:serif="http://www.serif.com/" style="fill-rule:evenodd;clip-rule:evenodd;stroke-linejoin:round;stroke-miterlimit:2;">
    <g transform="matrix(4.16667,0,0,4.16667,-1906.44,-3494.23)">
        <path d="M495.291,844.623L495.28,844.623C494.2,844.62 493.129,844.618 492.04,844.617L492.037,844.617C490.382,844.617 489.039,843.275 489.037,841.62C489.035,839.963 490.378,838.619 492.034,838.617C493.123,838.613 494.212,838.62 495.302,838.623C496.959,838.629 498.297,839.977 498.291,841.634C498.285,843.287 496.943,844.623 495.291,844.623" style="fill:rgb(0,114,206);fill-rule:nonzero;"/>
    </g>
    <g transform="matrix(4.16667,0,0,4.16667,-1906.44,-3160.17)">
        <path d="M537.564,844.584C515.954,844.584 496.036,836.168 481.274,820.748C467.833,806.879 459.418,788.85 457.59,769.996C457.328,767.269 458.233,764.495 460.075,762.386C461.918,760.271 464.551,758.997 467.297,758.887C472.963,758.671 478.734,758.537 484.944,758.478L484.973,758.478C486.617,758.478 487.957,759.802 487.972,761.449C487.988,763.105 486.658,764.462 485.001,764.478C478.849,764.536 473.134,764.669 467.532,764.883C466.432,764.927 465.36,765.454 464.595,766.331C463.835,767.203 463.458,768.328 463.563,769.42C465.259,786.924 473.084,803.676 485.595,816.586C499.675,831.294 518.836,839.079 539.562,838.559C559.398,838.048 579.154,829.749 593.764,815.792C606.21,803.735 614.01,787.355 615.714,769.688C615.815,768.643 615.49,767.663 614.797,766.932C614.083,766.175 613.089,765.772 611.982,765.828C587.797,766.752 563.265,766.042 539.543,765.356C527.369,765.004 514.782,764.64 502.415,764.502C500.757,764.483 499.429,763.124 499.448,761.469C499.466,759.823 500.806,758.502 502.447,758.502L502.481,758.502C514.902,758.641 527.516,759.006 539.715,759.358C563.34,760.042 587.769,760.749 611.748,759.832C614.545,759.72 617.259,760.804 619.157,762.809C621.03,764.789 621.952,767.506 621.687,770.264C619.846,789.35 611.407,807.054 597.923,820.115C582.234,835.105 561.024,844.008 539.716,844.556C538.998,844.574 538.279,844.584 537.564,844.584" style="fill:rgb(0,114,206);fill-rule:nonzero;"/>
    </g>
    <g transform="matrix(4.16667,0,0,4.16667,-1906.44,-3206.84)">
        <path d="M498.046,843.687C497.492,843.687 496.933,843.535 496.432,843.213C495.036,842.32 494.629,840.464 495.523,839.07C509.461,817.298 524.415,794.099 539.328,771.947C539.899,771.097 540.83,770.576 541.889,770.623C542.912,770.647 543.852,771.192 544.383,772.067C558.334,795.099 572.277,817.199 585.363,837.859C586.25,839.259 585.834,841.112 584.435,841.999C583.035,842.885 581.182,842.468 580.295,841.07C567.954,821.586 554.852,800.824 541.69,779.193C527.68,800.109 513.68,821.837 500.575,842.304C500.003,843.199 499.034,843.687 498.046,843.687" style="fill:rgb(0,114,206);fill-rule:nonzero;"/>
    </g>
    <g transform="matrix(4.16667,0,0,4.16667,-1906.44,-3247.15)">
        <path d="M588.643,829.727C587.771,829.727 586.906,829.348 586.313,828.619C585.268,827.332 585.463,825.444 586.749,824.399C586.826,824.336 586.93,824.261 587.026,824.198C590.002,822.2 591.997,819.188 592.64,815.715C593.274,812.296 592.516,808.842 590.506,805.989C588.387,802.978 585.02,800.939 581.268,800.393C579.628,800.155 578.493,798.632 578.731,796.993C578.968,795.353 580.486,794.209 582.131,794.456C587.508,795.238 592.348,798.182 595.413,802.535C598.36,806.719 599.47,811.79 598.539,816.809C597.598,821.886 594.693,826.282 590.359,829.187C590.355,829.19 590.351,829.192 590.347,829.195C589.83,829.552 589.235,829.727 588.643,829.727" style="fill:rgb(241,90,36);fill-rule:nonzero;"/>
    </g>
    <g transform="matrix(4.16667,0,0,4.16667,-1906.44,-3365.84)">
        <path d="M582.832,818.142C578.54,821.614 574.249,825.067 569.957,828.529C575.197,830.475 580.437,832.389 585.677,834.28C584.728,828.903 583.779,823.524 582.832,818.142" style="fill:rgb(241,90,36);fill-rule:nonzero;"/>
    </g>
    <g transform="matrix(4.16667,0,0,4.16667,-1906.44,-3276.3)">
        <path d="M488.595,826.009C487.795,826.009 486.998,825.692 486.408,825.064C485.274,823.857 485.332,821.958 486.539,820.823C491.795,815.882 497.05,810.944 502.306,806.051C503.521,804.924 505.417,804.992 506.546,806.203C507.675,807.416 507.607,809.315 506.394,810.444C501.146,815.328 495.897,820.261 490.649,825.195C490.07,825.739 489.331,826.009 488.595,826.009" style="fill:rgb(241,90,36);fill-rule:nonzero;"/>
    </g>
    <g transform="matrix(4.16667,0,0,4.16667,-1906.44,-3337.24)">
        <path d="M507.797,830.027C509.29,825.184 510.783,820.351 512.277,815.531C507.412,816.567 502.545,817.63 497.679,818.718C501.051,822.488 504.424,826.262 507.797,830.027" style="fill:rgb(241,90,36);fill-rule:nonzero;"/>
    </g>
    <g transform="matrix(4.16667,0,0,4.16667,-1906.44,-3135.63)">
        <path d="M541.092,812.066C539.435,812.066 538.092,810.723 538.092,809.066L538.092,788.106C538.092,786.449 539.435,785.106 541.092,785.106C542.749,785.106 544.092,786.449 544.092,788.106L544.092,809.066C544.092,810.723 542.749,812.066 541.092,812.066" style="fill:rgb(241,90,36);fill-rule:nonzero;"/>
    </g>
    <g transform="matrix(4.16667,0,0,4.16667,-1906.44,-3010.01)">
        <path d="M533.014,776.617C535.705,781.282 538.401,785.919 541.092,790.529C543.784,785.822 546.477,781.144 549.17,776.493C543.785,776.532 538.4,776.575 533.014,776.617" style="fill:rgb(241,90,36);fill-rule:nonzero;"/>
    </g>
</svg>
