<?xml version="1.0" encoding="UTF-8" standalone="no"?>
<!DOCTYPE svg PUBLIC "-//W3C//DTD SVG 1.1//EN" "http://www.w3.org/Graphics/SVG/1.1/DTD/svg11.dtd">
<svg width="100%" height="100%" viewBox="0 0 603 601" version="1.1" xmlns="http://www.w3.org/2000/svg" xmlns:xlink="http://www.w3.org/1999/xlink" xml:space="preserve" xmlns:serif="http://www.serif.com/" style="fill-rule:evenodd;clip-rule:evenodd;stroke-linejoin:round;stroke-miterlimit:2;">
    <g transform="matrix(4.16667,0,0,4.16667,-3319.7,-1583.3)">
        <path d="M833.409,385.993C825.883,385.993 818.611,389.075 812.874,394.706C806.428,401.033 802.729,409.739 802.729,418.59L802.729,445.4C802.728,453.861 806.216,462.183 812.297,468.236C818.163,474.075 825.799,477.285 833.811,477.285L833.957,477.285L835.332,477.275C852.579,477.014 866.607,462.733 866.607,445.434L866.607,418.76C866.607,401.505 852.261,386.514 835.279,386.022L833.921,385.998C833.751,385.994 833.579,385.993 833.409,385.993M835.366,480.275L835.376,480.275L835.366,480.275ZM833.814,483.285C824.201,483.285 815.063,479.455 808.063,472.488C800.859,465.318 796.728,455.445 796.729,445.4L796.729,418.59C796.73,408.139 801.082,397.873 808.671,390.425C815.696,383.527 824.732,379.816 834.027,379.999L835.423,380.024C855.593,380.607 872.607,398.346 872.607,418.76L872.607,445.434C872.607,465.996 855.921,482.971 835.411,483.275L835.391,483.275L833.99,483.285L833.814,483.285Z" style="fill:rgb(241,90,36);fill-rule:nonzero;"/>
    </g>
    <g transform="matrix(4.16667,0,0,4.16667,-3319.7,-1163.15)">
        <path d="M838.998,423.383C835.44,423.383 832.077,422.012 829.489,419.497C826.73,416.816 825.149,413.036 825.15,409.127L825.15,353.282C825.151,349.368 826.663,345.709 829.406,342.978C832.06,340.335 835.561,338.882 839.272,338.882L839.327,338.882C849.201,338.919 859.075,338.995 868.949,339.071C875.898,339.124 882.848,339.178 889.797,339.218C891.453,339.228 892.789,340.578 892.779,342.236C892.769,343.886 891.429,345.218 889.779,345.218L889.762,345.218C882.81,345.178 875.856,345.124 868.903,345.071C859.037,344.995 849.17,344.919 839.304,344.882L839.273,344.882C837.16,344.882 835.16,345.715 833.64,347.229C832.035,348.827 831.151,350.978 831.15,353.283L831.15,409.128C831.149,411.46 832.045,413.613 833.671,415.195C835.182,416.663 837.161,417.432 839.228,417.379C849.11,417.107 859.174,416.541 868.907,415.995C888.062,414.921 907.871,413.809 927.436,414.841C929.689,414.979 931.75,414.248 933.251,412.825C934.665,411.487 935.442,409.617 935.441,407.563L935.441,353.23C935.441,351.076 934.605,349.063 933.088,347.559C931.57,346.055 929.547,345.23 927.383,345.23L927.305,345.23C921.158,345.275 914.786,345.293 907.795,345.284C906.139,345.282 904.797,343.938 904.799,342.28C904.801,340.625 906.144,339.284 907.799,339.284L907.803,339.284C914.768,339.289 921.132,339.276 927.255,339.23C927.3,339.23 927.346,339.229 927.39,339.229C931.141,339.229 934.661,340.67 937.311,343.297C939.975,345.936 941.441,349.463 941.441,353.23L941.441,407.561C941.443,411.279 940.001,414.696 937.378,417.181C934.666,419.749 931.018,421.054 927.113,420.832C907.885,419.821 888.239,420.921 869.243,421.986C859.469,422.534 849.361,423.102 839.398,423.377C839.265,423.381 839.131,423.383 838.998,423.383" style="fill:rgb(0,114,206);fill-rule:nonzero;"/>
    </g>
    <g transform="matrix(4.16667,0,0,4.16667,-3319.7,-1487.11)">
        <path d="M899.558,423.016L899.548,423.016L895.857,423C894.201,422.993 892.864,421.643 892.871,419.986C892.879,418.334 894.221,417 895.871,417L895.886,417L899.568,417.016C901.224,417.021 902.563,418.369 902.558,420.026C902.553,421.679 901.21,423.016 899.558,423.016" style="fill:rgb(0,114,206);fill-rule:nonzero;"/>
    </g>
</svg>
