<?xml version="1.0" encoding="UTF-8" standalone="no"?>
<!DOCTYPE svg PUBLIC "-//W3C//DTD SVG 1.1//EN" "http://www.w3.org/Graphics/SVG/1.1/DTD/svg11.dtd">
<svg width="100%" height="100%" viewBox="0 0 736 461" version="1.1" xmlns="http://www.w3.org/2000/svg" xmlns:xlink="http://www.w3.org/1999/xlink" xml:space="preserve" xmlns:serif="http://www.serif.com/" style="fill-rule:evenodd;clip-rule:evenodd;stroke-linejoin:round;stroke-miterlimit:2;">
    <g transform="matrix(4.16667,0,0,4.16667,-3254.96,-925.267)">
        <path d="M926.881,265.654C925.39,265.654 924.098,264.544 923.908,263.026C923.764,261.869 924.823,258.185 927.366,255.271C930.004,252.249 933.674,250.624 937.981,250.574C940.433,250.552 942.885,251.008 945.355,251.963C943.557,249.757 941.524,247.97 939.415,247.404C929.753,244.748 925.079,251.363 924.806,251.764C924.443,252.325 923.898,252.755 923.25,252.974C922.613,253.188 920.914,253.764 917.419,249.907C915.02,247.258 911.54,241.608 915.199,233.528C916.125,231.491 917.798,229.682 919.725,228.133C917.965,228.243 916.388,228.512 915.215,229.001C903.702,233.824 907.272,248.322 907.513,249.248C907.906,250.651 907.228,252.163 905.87,252.783C904.498,253.411 902.896,252.917 902.1,251.677C901.796,251.226 897.104,244.566 887.514,247.208C885.394,247.786 883.348,249.592 881.536,251.837C883.82,250.951 886.344,250.414 888.943,250.437C895.053,250.524 898.234,253.661 899.825,256.277C900.845,257.954 902.439,262.052 901.5,263.929C900.759,265.413 898.955,266.012 897.475,265.271C896.47,264.768 895.87,263.778 895.819,262.731C895.734,261.618 895.001,256.524 888.852,256.437C888.79,256.436 888.728,256.435 888.665,256.435C881.103,256.435 874.974,263.715 874.576,264.196C873.91,265.061 872.795,265.523 871.657,265.318C870.08,265.029 869.009,263.55 869.226,261.962C869.228,261.95 869.257,261.86 869.315,261.702L869.276,261.692C869.309,261.549 869.397,261.351 869.538,261.11C870.924,257.545 876.859,243.895 885.928,241.421C892.262,239.677 897.258,240.899 900.834,242.842C900.872,240.214 901.252,237.257 902.317,234.387C904.208,229.29 907.769,225.615 912.902,223.466C917.987,221.343 925.843,222.095 930.075,222.732L930.145,222.743C930.426,222.776 930.705,222.85 930.975,222.966C932.032,223.421 932.736,224.441 932.786,225.591C932.803,225.982 932.756,227.132 931.741,227.989L931.746,227.995C931.471,228.233 931.188,228.395 930.913,228.506C930.897,228.513 930.879,228.52 930.862,228.528C925.705,230.789 921.701,233.724 920.662,236.008C918.437,240.925 920.27,244.229 921.938,246.006C925.19,242.859 931.561,239.024 940.988,241.614C950.189,244.089 956.264,257.91 957.48,261.395C957.587,261.637 957.661,261.872 957.693,262.092C957.699,262.12 957.702,262.141 957.703,262.158L957.701,262.158C957.706,262.199 957.709,262.239 957.711,262.279C957.774,263.911 956.52,265.294 954.889,265.389C953.873,265.437 952.913,264.981 952.328,264.215C951.955,263.769 945.777,256.572 938.248,256.572C938.187,256.572 938.125,256.573 938.063,256.574C931.485,256.65 930.019,262.347 929.839,263.182C929.614,264.442 928.594,265.464 927.257,265.631C927.131,265.646 927.005,265.654 926.881,265.654" style="fill:rgb(241,90,36);fill-rule:nonzero;"/>
    </g>
    <g transform="matrix(4.16667,0,0,4.16667,-3254.96,-594.712)">
        <path d="M802.092,197.332L802.083,197.332C798.498,197.342 795.58,200.317 795.581,203.965C795.582,207.641 798.509,210.657 802.107,210.69C803.763,210.731 805.374,210.052 806.586,208.853C807.867,207.584 808.573,205.873 808.576,204.034C808.573,202.228 807.889,200.534 806.649,199.267C805.428,198.019 803.811,197.332 802.092,197.332M802.163,216.69L802.052,216.69C795.176,216.626 789.582,210.918 789.581,203.967C789.578,197.02 795.181,191.352 802.07,191.332L802.089,191.332C805.439,191.332 808.578,192.659 810.938,195.07C813.28,197.466 814.572,200.647 814.576,204.031L814.576,204.037C814.573,207.488 813.235,210.713 810.808,213.116C808.477,215.424 805.411,216.69 802.163,216.69" style="fill:rgb(241,90,36);fill-rule:nonzero;"/>
    </g>
    <g transform="matrix(4.16667,0,0,4.16667,-3254.96,-361.371)">
        <path d="M787.19,190.655C796.4,191.082 806.199,191.236 816.965,191.141C816.965,187.747 816.965,181.91 816.964,176.217L816.964,176.216C816.963,167.813 810.274,160.92 802.052,160.85L801.973,160.85C798.006,160.85 794.285,162.377 791.494,165.154C788.716,167.919 787.188,171.611 787.19,175.551L787.19,190.655ZM819.964,194.107L819.974,194.107L819.964,194.107ZM819.964,194.107L819.974,194.107L819.964,194.107ZM810.866,197.17C801.271,197.17 792.425,196.95 784.032,196.507C782.438,196.422 781.19,195.106 781.19,193.51L781.19,175.553C781.187,170.006 783.343,164.801 787.261,160.902C791.184,156.997 796.409,154.85 801.981,154.85L802.093,154.85C813.605,154.948 822.963,164.532 822.964,176.216L822.964,176.215L822.965,192.547C822.964,194.424 822.964,196.76 820.332,197.085C820.223,197.098 820.114,197.105 820.004,197.107C816.88,197.149 813.837,197.17 810.866,197.17" style="fill:rgb(241,90,36);fill-rule:nonzero;"/>
    </g>
    <g transform="matrix(4.16667,0,0,4.16667,-3254.96,-594.55)">
        <path d="M828.581,197.286C825.007,197.286 822.094,200.299 822.092,204.003C822.093,205.842 822.798,207.558 824.079,208.833C825.287,210.036 826.874,210.697 828.55,210.697L828.577,210.697C832.166,210.681 835.087,207.662 835.088,203.969C835.089,200.291 832.172,197.294 828.584,197.286L828.581,197.286ZM828.55,216.697C825.276,216.697 822.187,215.416 819.847,213.086C817.427,210.677 816.093,207.451 816.092,204.002C816.096,196.988 821.7,191.286 828.586,191.286L828.591,191.286C835.486,191.3 841.091,196.99 841.088,203.971C841.087,210.956 835.486,216.665 828.603,216.697L828.55,216.697Z" style="fill:rgb(241,90,36);fill-rule:nonzero;"/>
    </g>
    <g transform="matrix(4.16667,0,0,4.16667,-3254.96,-360.521)">
        <path d="M827.466,197.125C825.846,197.125 824.511,195.833 824.469,194.203C824.426,192.546 825.734,191.169 827.39,191.126C832.401,190.996 837.688,190.818 843.479,190.583C843.48,187.346 843.479,181.729 843.477,175.72C843.477,171.652 841.907,167.849 839.06,165.008C836.269,162.224 832.567,160.691 828.633,160.691L828.597,160.691C826.605,160.697 824.659,161.104 822.819,161.901C821.298,162.56 819.532,161.86 818.874,160.34C818.216,158.819 818.915,157.054 820.436,156.396C823.028,155.273 825.768,154.7 828.58,154.691L828.631,154.691C834.167,154.691 839.373,156.846 843.298,160.76C847.281,164.734 849.476,170.047 849.477,175.719L849.479,191.913C849.478,193.877 849.477,195.907 847.08,196.399C846.924,196.432 846.764,196.451 846.605,196.458C839.639,196.755 833.405,196.973 827.546,197.124C827.519,197.125 827.492,197.125 827.466,197.125" style="fill:rgb(241,90,36);fill-rule:nonzero;"/>
    </g>
    <g transform="matrix(4.16667,0,0,4.16667,-3254.96,-595.35)">
        <path d="M855.074,197.51C853.375,197.51 851.773,198.177 850.557,199.389C849.296,200.648 848.601,202.333 848.602,204.134C848.602,205.94 849.297,207.617 850.556,208.862C851.75,210.04 853.319,210.687 854.983,210.687C855.01,210.687 855.036,210.687 855.063,210.686C858.669,210.646 861.599,207.671 861.598,204.055L861.598,204.054C861.598,200.452 858.68,197.517 855.095,197.51L855.074,197.51ZM854.977,216.687C851.729,216.687 848.667,215.428 846.342,213.131C843.93,210.751 842.603,207.557 842.602,204.137C842.6,200.73 843.921,197.534 846.32,195.141C848.678,192.789 851.814,191.488 855.11,191.51C861.994,191.523 867.598,197.15 867.598,204.054L867.598,204.053L867.598,204.054C867.599,210.942 862.009,216.609 855.134,216.686C855.082,216.686 855.029,216.687 854.977,216.687" style="fill:rgb(241,90,36);fill-rule:nonzero;"/>
    </g>
    <g transform="matrix(4.16667,0,0,4.16667,-3254.96,-363.454)">
        <path d="M854.277,197.332C852.695,197.332 851.371,196.093 851.284,194.494C851.195,192.84 852.464,191.426 854.118,191.336C858.887,191.079 863.655,190.808 868.423,190.537L869.987,190.448L869.988,175.836C869.989,171.909 868.457,168.226 865.673,165.465C862.892,162.705 859.193,161.188 855.248,161.188C855.207,161.188 855.166,161.189 855.125,161.189C853.123,161.212 851.173,161.631 849.34,162.432C847.823,163.098 846.053,162.403 845.39,160.886C844.726,159.368 845.418,157.6 846.936,156.936C849.509,155.81 852.245,155.222 855.066,155.189C855.124,155.189 855.181,155.188 855.24,155.188C860.789,155.188 865.986,157.321 869.9,161.205C873.827,165.102 875.989,170.299 875.988,175.838C875.986,184.065 875.986,192.588 875.988,193.228C875.992,193.446 875.971,193.668 875.926,193.89C875.651,195.222 874.515,196.202 873.157,196.278L868.763,196.527C863.99,196.799 859.216,197.069 854.442,197.328C854.386,197.331 854.332,197.332 854.277,197.332" style="fill:rgb(241,90,36);fill-rule:nonzero;"/>
    </g>
    <g transform="matrix(4.16667,0,0,4.16667,-3254.96,-766.687)">
        <path d="M912.676,214.108C909.742,214.108 907.012,215.219 904.976,217.243C903.002,219.205 901.915,221.811 901.916,224.584C901.915,227.377 903.013,230.01 905.008,232.004C907.063,234.057 909.81,235.187 912.745,235.187C912.752,235.187 912.76,235.188 912.766,235.187C915.681,235.187 918.412,234.084 920.462,232.079C922.495,230.091 923.615,227.453 923.615,224.651L923.615,224.65C923.617,218.87 918.742,214.14 912.75,214.108L912.676,214.108ZM912.74,241.187C908.208,241.187 903.955,239.434 900.767,236.249C897.637,233.121 895.914,228.978 895.916,224.583C895.915,220.203 897.63,216.084 900.745,212.988C903.914,209.838 908.146,208.108 912.671,208.108L912.785,208.108C922.067,208.158 929.617,215.58 929.615,224.652L929.615,224.651L929.615,224.652C929.614,229.082 927.854,233.244 924.656,236.369C921.479,239.476 917.258,241.187 912.772,241.187C912.755,241.188 912.75,241.187 912.74,241.187" style="fill:rgb(0,114,206);fill-rule:nonzero;"/>
    </g>
    <g transform="matrix(4.16667,0,0,4.16667,-3254.96,-227.671)">
        <path d="M901.743,163.059C900.133,163.059 898.801,161.781 898.747,160.16C898.691,158.503 899.989,157.116 901.644,157.061C902.984,157.016 904.326,156.977 905.667,156.938C907.299,156.873 908.714,158.193 908.763,159.849C908.81,161.505 907.516,162.886 905.86,162.935L905.842,162.935C904.51,162.974 903.177,163.013 901.846,163.057C901.811,163.058 901.777,163.059 901.743,163.059" style="fill:rgb(0,114,206);fill-rule:nonzero;"/>
    </g>
    <g transform="matrix(4.16667,0,0,4.16667,-3254.96,-437.062)">
        <path d="M886.682,213.883C885.333,213.883 884.144,212.981 883.787,211.669C883.711,211.386 883.677,211.1 883.683,210.819C883.686,210.036 883.686,198.654 883.683,185.095C883.684,177.427 886.68,170.216 892.12,164.788C897.607,159.315 904.914,156.303 912.703,156.303C912.742,156.304 912.78,156.304 912.814,156.303C920.645,156.303 927.989,159.325 933.489,164.818C938.879,170.201 941.848,177.339 941.848,184.917C941.846,196.876 941.846,209.418 941.848,209.926L941.848,209.986C941.832,211.631 940.494,212.957 938.848,212.957C938.796,212.957 938.745,212.956 938.694,212.955C930.613,212.802 922.148,212.822 912.827,213.017C912.805,213.018 912.784,213.018 912.763,213.018C911.135,213.018 909.799,211.716 909.765,210.08C909.73,208.424 911.045,207.053 912.702,207.019C920.972,206.845 928.575,206.811 935.847,206.907L935.848,184.917C935.848,178.944 933.504,173.313 929.248,169.064C924.882,164.703 919.043,162.303 912.803,162.303C912.775,162.302 912.744,162.302 912.714,162.303C906.514,162.303 900.712,164.693 896.358,169.036C892.054,173.33 889.683,179.033 889.683,185.094L889.685,207.755C891.705,207.673 893.725,207.593 895.745,207.518C897.414,207.488 898.794,208.748 898.856,210.404C898.917,212.06 897.625,213.452 895.97,213.514C892.916,213.628 889.864,213.75 886.81,213.88C886.767,213.882 886.724,213.883 886.682,213.883" style="fill:rgb(0,114,206);fill-rule:nonzero;"/>
    </g>
</svg>
