<?xml version="1.0" encoding="UTF-8" standalone="no"?>
<!DOCTYPE svg PUBLIC "-//W3C//DTD SVG 1.1//EN" "http://www.w3.org/Graphics/SVG/1.1/DTD/svg11.dtd">
<svg width="100%" height="100%" viewBox="0 0 712 368" version="1.1" xmlns="http://www.w3.org/2000/svg" xmlns:xlink="http://www.w3.org/1999/xlink" xml:space="preserve" xmlns:serif="http://www.serif.com/" style="fill-rule:evenodd;clip-rule:evenodd;stroke-linejoin:round;stroke-miterlimit:2;">
    <g transform="matrix(4.16667,0,0,4.16667,-4665.88,-1222.12)">
        <path d="M1163.97,375.622C1162.33,375.622 1160.98,374.293 1160.97,372.643C1160.96,370.986 1162.29,369.634 1163.95,369.622C1177.65,369.524 1191.58,369.195 1205.06,368.877C1227.35,368.351 1250.4,367.806 1273.1,368.29C1274.76,368.325 1276.07,369.696 1276.04,371.352C1276,372.987 1274.67,374.289 1273.04,374.289C1273.02,374.289 1273,374.289 1272.98,374.288C1250.41,373.809 1227.43,374.351 1205.2,374.876C1191.7,375.194 1177.74,375.524 1163.99,375.622L1163.97,375.622Z" style="fill:rgb(241,90,36);fill-rule:nonzero;"/>
    </g>
    <g transform="matrix(4.16667,0,0,4.16667,-4665.88,-1226.15)">
        <path d="M1269.98,382.467C1276.02,379.18 1282.06,375.953 1288.11,372.738C1282.06,368.995 1276.02,365.422 1269.98,361.928L1269.98,382.467Z" style="fill:rgb(241,90,36);fill-rule:nonzero;"/>
    </g>
    <g transform="matrix(4.16667,0,0,4.16667,-4665.88,-1214.31)">
        <path d="M1155.67,373.779L1152.97,373.775C1151.32,373.769 1149.98,372.423 1149.98,370.765C1149.99,369.112 1151.33,367.775 1152.98,367.775L1152.99,367.775L1155.68,367.779C1157.33,367.781 1158.68,369.126 1158.67,370.782C1158.67,372.438 1157.33,373.779 1155.67,373.779" style="fill:rgb(241,90,36);fill-rule:nonzero;"/>
    </g>
    <g transform="matrix(4.16667,0,0,4.16667,-4665.88,-1216.95)">
        <path d="M1145.35,374.353L1145.32,374.353C1138.27,374.274 1131.72,374.117 1125.31,373.872C1123.65,373.808 1122.36,372.415 1122.42,370.759C1122.49,369.103 1123.91,367.833 1125.53,367.875C1131.9,368.119 1138.39,368.275 1145.38,368.353C1147.04,368.372 1148.37,369.73 1148.35,371.386C1148.33,373.032 1146.99,374.353 1145.35,374.353" style="fill:rgb(241,90,36);fill-rule:nonzero;"/>
    </g>
    <g transform="matrix(4.16667,0,0,4.16667,-4665.88,-1605.89)">
        <path d="M1156,391.414C1154.49,391.414 1153,391.418 1151.52,391.427C1137.58,391.531 1125.81,403.703 1125.81,418.006C1125.81,432.328 1137.34,444.044 1151.52,444.124C1154.67,444.131 1157.82,444.131 1160.97,444.123L1160.97,391.429C1159.28,391.419 1157.63,391.414 1156,391.414M1163.97,447.114L1163.98,447.114L1163.97,447.114ZM1155.94,450.129C1154.46,450.129 1152.98,450.127 1151.5,450.124C1134.02,450.025 1119.81,435.617 1119.81,418.006C1119.81,400.477 1134.31,385.556 1151.48,385.427C1155.49,385.403 1159.58,385.411 1164,385.45C1165.65,385.465 1166.97,386.804 1166.97,388.45L1166.97,447.114C1166.97,448.767 1165.64,450.108 1163.98,450.114C1161.3,450.124 1158.62,450.129 1155.94,450.129" style="fill:rgb(0,114,206);fill-rule:nonzero;"/>
    </g>
    <g transform="matrix(4.16667,0,0,4.16667,-4665.88,-1605.76)">
        <path d="M1166.97,391.449L1166.97,444.069C1178.87,444.014 1190.66,443.885 1202.13,443.753L1202.13,392.245C1190.6,391.913 1178.76,391.587 1166.97,391.449M1205.13,446.719L1205.14,446.719L1205.13,446.719ZM1163.97,450.082C1163.18,450.082 1162.42,449.767 1161.86,449.207C1161.29,448.644 1160.97,447.88 1160.97,447.082L1160.97,388.418C1160.97,387.618 1161.29,386.85 1161.86,386.287C1162.43,385.723 1163.19,385.436 1164,385.418C1177.84,385.54 1191.76,385.942 1205.22,386.331C1206.84,386.378 1208.13,387.707 1208.13,389.33L1208.13,446.719C1208.13,448.362 1206.81,449.699 1205.17,449.719C1191.79,449.873 1177.96,450.032 1163.98,450.082L1163.97,450.082Z" style="fill:rgb(0,114,206);fill-rule:nonzero;"/>
    </g>
    <g transform="matrix(4.16667,0,0,4.16667,-4665.88,-1603.56)">
        <path d="M1208.13,391.89L1208.13,443.156C1219.6,443.025 1231.39,442.895 1243.29,442.84L1243.29,392.684C1231.56,392.547 1219.7,392.222 1208.13,391.89M1246.29,445.828L1246.3,445.828L1246.29,445.828ZM1205.13,449.191C1204.34,449.191 1203.59,448.879 1203.02,448.325C1202.45,447.761 1202.13,446.993 1202.13,446.191L1202.13,388.802C1202.13,387.992 1202.46,387.215 1203.04,386.651C1203.62,386.086 1204.39,385.781 1205.22,385.803C1218.7,386.192 1232.63,386.593 1246.32,386.714C1247.97,386.729 1249.29,388.068 1249.29,389.714L1249.29,445.828C1249.29,447.48 1247.96,448.822 1246.31,448.828C1232.35,448.877 1218.53,449.036 1205.17,449.191L1205.13,449.191Z" style="fill:rgb(0,114,206);fill-rule:nonzero;"/>
    </g>
    <g transform="matrix(4.16667,0,0,4.16667,-4665.88,-1601.45)">
        <path d="M1249.29,392.23L1249.29,442.313C1252.45,442.305 1255.61,442.306 1258.77,442.312C1258.82,442.308 1258.88,442.313 1258.94,442.313C1265.83,442.313 1272.27,439.686 1277.08,434.906C1281.84,430.172 1284.46,423.828 1284.46,417.042C1284.46,410.378 1281.91,404.179 1277.28,399.584C1272.44,394.788 1265.9,392.178 1258.79,392.233C1255.7,392.25 1252.57,392.249 1249.29,392.23M1246.29,448.322C1245.5,448.322 1244.74,448.007 1244.18,447.447C1243.61,446.884 1243.29,446.12 1243.29,445.322L1243.29,389.209C1243.29,388.409 1243.61,387.641 1244.18,387.079C1244.75,386.515 1245.48,386.18 1246.32,386.209C1250.69,386.245 1254.76,386.255 1258.75,386.233C1267.46,386.144 1275.52,389.393 1281.5,395.325C1287.28,401.055 1290.46,408.768 1290.46,417.041C1290.46,425.436 1287.21,433.293 1281.31,439.161C1275.37,445.067 1267.43,448.312 1258.94,448.313C1258.88,448.313 1258.81,448.312 1258.75,448.312C1254.6,448.303 1250.45,448.306 1246.31,448.322L1246.29,448.322Z" style="fill:rgb(0,114,206);fill-rule:nonzero;"/>
    </g>
</svg>
