<?xml version="1.0" encoding="UTF-8" standalone="no"?>
<!DOCTYPE svg PUBLIC "-//W3C//DTD SVG 1.1//EN" "http://www.w3.org/Graphics/SVG/1.1/DTD/svg11.dtd">
<svg width="100%" height="100%" viewBox="0 0 674 383" version="1.1" xmlns="http://www.w3.org/2000/svg" xmlns:xlink="http://www.w3.org/1999/xlink" xml:space="preserve" xmlns:serif="http://www.serif.com/" style="fill-rule:evenodd;clip-rule:evenodd;stroke-linejoin:round;stroke-miterlimit:2;">
    <g transform="matrix(4.16667,0,0,4.16667,-4685.5,-3486.03)">
        <path d="M1161.75,841.408L1161.75,846.162C1164.65,846.172 1167.56,846.195 1170.47,846.229L1170.47,850.812C1167.56,850.783 1164.65,850.763 1161.75,850.754L1161.75,859.707C1159.95,859.704 1158.16,859.704 1156.37,859.707L1156.37,836.652C1161.31,836.636 1166.26,836.673 1171.2,836.75L1171.2,841.494C1168.05,841.451 1164.9,841.42 1161.75,841.408" style="fill:rgb(241,90,36);fill-rule:nonzero;"/>
    </g>
    <g transform="matrix(4.16667,0,0,4.16667,-4685.5,-3482.58)">
        <path d="M1187.66,842.383C1186.7,844.971 1185.75,847.562 1184.79,850.159C1186.68,850.195 1188.57,850.232 1190.46,850.27C1189.52,847.645 1188.59,845.016 1187.66,842.383M1193.71,859.197C1193.12,857.701 1192.54,856.203 1191.95,854.703C1189.05,854.651 1186.14,854.602 1183.23,854.557C1182.68,856.046 1182.13,857.536 1181.58,859.029C1179.6,859.005 1177.63,858.984 1175.66,858.963C1178.81,851.339 1181.96,843.754 1185.11,836.221C1186.87,836.269 1188.63,836.319 1190.39,836.371C1193.51,844.057 1196.63,851.7 1199.75,859.293C1197.74,859.261 1195.72,859.228 1193.71,859.197" style="fill:rgb(241,90,36);fill-rule:nonzero;"/>
    </g>
    <g transform="matrix(4.16667,0,0,4.16667,-4685.5,-3477.77)">
        <path d="M1218.98,841.931C1218.52,841.328 1217.9,840.843 1217.15,840.478C1216.39,840.106 1215.67,839.915 1214.97,839.895C1214.6,839.887 1214.24,839.904 1213.87,839.958C1213.5,840.008 1213.16,840.127 1212.87,840.292C1212.56,840.464 1212.32,840.687 1212.12,840.968C1211.92,841.245 1211.81,841.609 1211.82,842.052C1211.82,842.433 1211.9,842.751 1212.05,843.008C1212.21,843.269 1212.44,843.494 1212.75,843.693C1213.06,843.892 1213.43,844.077 1213.85,844.244C1214.27,844.415 1214.76,844.589 1215.29,844.771C1216.04,845.041 1216.85,845.342 1217.67,845.666C1218.5,845.994 1219.25,846.411 1219.93,846.931C1220.62,847.453 1221.17,848.088 1221.62,848.841C1222.07,849.597 1222.29,850.527 1222.29,851.638C1222.29,852.915 1222.05,854.019 1221.57,854.945C1221.1,855.87 1220.45,856.626 1219.65,857.227C1218.84,857.824 1217.91,858.261 1216.88,858.539C1215.83,858.822 1214.77,858.951 1213.66,858.933C1212.05,858.911 1210.49,858.603 1208.98,858.019C1207.48,857.431 1206.22,856.613 1205.23,855.553C1206.41,854.365 1207.6,853.181 1208.79,851.999C1209.35,852.687 1210.06,853.268 1210.97,853.74C1211.88,854.214 1212.78,854.454 1213.66,854.472C1214.07,854.482 1214.46,854.445 1214.84,854.369C1215.21,854.288 1215.56,854.163 1215.84,853.976C1216.13,853.792 1216.36,853.544 1216.53,853.232C1216.7,852.922 1216.78,852.54 1216.78,852.099C1216.78,851.682 1216.67,851.32 1216.46,851.02C1216.25,850.719 1215.95,850.445 1215.56,850.196C1215.16,849.945 1214.67,849.71 1214.09,849.499C1213.5,849.287 1212.85,849.056 1212.1,848.806C1211.38,848.559 1210.68,848.267 1209.99,847.933C1209.3,847.6 1208.68,847.177 1208.14,846.665C1207.6,846.15 1207.16,845.538 1206.83,844.82C1206.5,844.105 1206.34,843.231 1206.34,842.215C1206.34,840.968 1206.59,839.898 1207.11,839.026C1207.62,838.154 1208.28,837.44 1209.11,836.897C1209.94,836.353 1210.87,835.968 1211.91,835.736C1212.95,835.505 1214,835.408 1215.06,835.443C1216.33,835.483 1217.63,835.752 1218.96,836.258C1220.28,836.762 1221.45,837.48 1222.45,838.404C1221.29,839.577 1220.13,840.753 1218.98,841.931" style="fill:rgb(241,90,36);fill-rule:nonzero;"/>
    </g>
    <g transform="matrix(4.16667,0,0,4.16667,-4685.5,-3474.69)">
        <path d="M1240.56,840.447L1240.56,857.957C1238.74,857.943 1236.93,857.928 1235.12,857.911L1235.12,840.365C1232.99,840.327 1230.87,840.286 1228.75,840.238L1228.75,835.664C1234.81,835.814 1240.87,835.924 1246.93,835.966L1246.93,840.508C1244.8,840.494 1242.68,840.474 1240.56,840.447" style="fill:rgb(241,90,36);fill-rule:nonzero;"/>
    </g>
    <g transform="matrix(4.16667,0,0,4.16667,-4685.5,-2918.87)">
        <path d="M1161.22,774.574C1160.75,773.969 1160.14,773.486 1159.38,773.127C1158.63,772.769 1157.9,772.584 1157.2,772.59C1156.84,772.588 1156.48,772.625 1156.11,772.685C1155.74,772.751 1155.4,772.876 1155.1,773.056C1154.8,773.24 1154.56,773.478 1154.36,773.771C1154.15,774.062 1154.06,774.435 1154.06,774.893C1154.06,775.286 1154.13,775.607 1154.29,775.87C1154.45,776.129 1154.69,776.362 1154.99,776.556C1155.3,776.756 1155.67,776.931 1156.09,777.097C1156.51,777.258 1156.99,777.431 1157.52,777.605C1158.29,777.862 1159.09,778.151 1159.91,778.469C1160.74,778.783 1161.49,779.197 1162.17,779.715C1162.85,780.231 1163.41,780.875 1163.86,781.645C1164.3,782.414 1164.53,783.375 1164.53,784.521C1164.52,785.844 1164.29,786.993 1163.81,787.961C1163.33,788.927 1162.69,789.728 1161.88,790.364C1161.08,790.995 1160.16,791.464 1159.11,791.77C1158.07,792.08 1157,792.23 1155.9,792.222C1154.29,792.217 1152.73,791.917 1151.22,791.323C1149.71,790.734 1148.46,789.896 1147.47,788.815C1148.65,787.599 1149.84,786.381 1151.03,785.156C1151.58,785.855 1152.31,786.443 1153.21,786.916C1154.11,787.393 1155.01,787.629 1155.9,787.631C1156.3,787.633 1156.69,787.595 1157.08,787.504C1157.46,787.422 1157.79,787.275 1158.08,787.082C1158.36,786.887 1158.6,786.626 1158.77,786.301C1158.93,785.979 1159.02,785.584 1159.02,785.128C1159.03,784.695 1158.91,784.326 1158.7,784.02C1158.49,783.717 1158.19,783.441 1157.79,783.19C1157.4,782.943 1156.91,782.707 1156.33,782.504C1155.74,782.293 1155.08,782.07 1154.34,781.828C1153.62,781.588 1152.91,781.299 1152.22,780.969C1151.53,780.64 1150.92,780.217 1150.38,779.701C1149.84,779.187 1149.4,778.56 1149.07,777.834C1148.74,777.102 1148.58,776.22 1148.58,775.178C1148.58,773.898 1148.84,772.81 1149.34,771.901C1149.86,770.993 1150.52,770.251 1151.35,769.671C1152.17,769.09 1153.11,768.664 1154.15,768.398C1155.19,768.131 1156.24,767.994 1157.3,767.998C1158.57,768 1159.87,768.238 1161.2,768.713C1162.53,769.189 1163.69,769.892 1164.68,770.818C1163.53,772.072 1162.37,773.322 1161.22,774.574" style="fill:rgb(241,90,36);fill-rule:nonzero;"/>
    </g>
    <g transform="matrix(4.16667,0,0,4.16667,-4685.5,-2919.98)">
        <path d="M1173.56,791.764L1173.56,768.78C1175.39,768.764 1177.21,768.744 1179.04,768.725L1179.04,786.827C1181.95,786.769 1184.85,786.702 1187.76,786.627L1187.76,791.43C1183.03,791.565 1178.3,791.68 1173.56,791.764" style="fill:rgb(241,90,36);fill-rule:nonzero;"/>
    </g>
    <g transform="matrix(4.16667,0,0,4.16667,-4685.5,-2925.26)">
        <path d="M1212.46,780.607C1212.46,779.635 1212.3,778.732 1211.98,777.896C1211.67,777.056 1211.23,776.341 1210.66,775.753C1210.1,775.162 1209.42,774.697 1208.63,774.366C1207.83,774.035 1206.95,773.875 1206,773.892C1205.05,773.908 1204.17,774.103 1203.39,774.47C1202.61,774.832 1201.92,775.331 1201.35,775.947C1200.78,776.568 1200.34,777.308 1200.03,778.164C1199.72,779.025 1199.57,779.943 1199.57,780.923C1199.57,781.951 1199.73,782.882 1200.05,783.738C1200.36,784.592 1200.8,785.323 1201.37,785.923C1201.93,786.527 1202.6,786.985 1203.39,787.316C1204.18,787.644 1205.05,787.793 1206,787.764C1206.95,787.736 1207.83,787.535 1208.61,787.163C1209.4,786.787 1210.07,786.291 1210.65,785.66C1211.23,785.032 1211.67,784.284 1211.98,783.421C1212.31,782.56 1212.46,781.618 1212.46,780.607M1218.29,780.471C1218.29,782.237 1217.98,783.855 1217.36,785.336C1216.74,786.814 1215.9,788.087 1214.8,789.165C1213.71,790.24 1212.41,791.087 1210.9,791.707C1209.39,792.325 1207.76,792.669 1206,792.726C1204.24,792.791 1202.61,792.551 1201.11,792.029C1199.62,791.502 1198.32,790.726 1197.23,789.705C1196.13,788.683 1195.28,787.435 1194.67,785.963C1194.05,784.492 1193.74,782.859 1193.75,781.061C1193.75,779.244 1194.05,777.595 1194.67,776.117C1195.28,774.638 1196.14,773.378 1197.23,772.334C1198.32,771.289 1199.62,770.48 1201.11,769.902C1202.61,769.325 1204.24,769.024 1206,768.994C1207.76,768.966 1209.4,769.214 1210.9,769.74C1212.41,770.266 1213.71,771.023 1214.8,772.017C1215.89,773.008 1216.75,774.222 1217.36,775.65C1217.98,777.076 1218.29,778.683 1218.29,780.471" style="fill:rgb(241,90,36);fill-rule:nonzero;"/>
    </g>
    <g transform="matrix(4.16667,0,0,4.16667,-4685.5,-2930.61)">
        <path d="M1251.2,792.401C1249.41,792.403 1247.61,792.411 1245.82,792.426C1244.34,787.469 1242.85,782.514 1241.37,777.553C1241.33,777.553 1241.3,777.554 1241.27,777.554C1239.78,782.542 1238.3,787.537 1236.81,792.546C1235.01,792.579 1233.2,792.614 1231.4,792.655C1229.27,785.323 1227.14,777.969 1225,770.589C1226.96,770.563 1228.91,770.538 1230.86,770.516C1232.05,775.415 1233.24,780.303 1234.43,785.188C1234.46,785.186 1234.49,785.186 1234.52,785.187C1235.86,780.261 1237.2,775.346 1238.53,770.442C1240.42,770.426 1242.31,770.413 1244.2,770.405C1245.55,775.284 1246.89,780.161 1248.24,785.039C1248.27,785.04 1248.3,785.038 1248.34,785.038C1249.55,780.15 1250.76,775.266 1251.97,770.385C1253.85,770.385 1255.74,770.389 1257.63,770.397C1255.49,777.73 1253.35,785.059 1251.2,792.401" style="fill:rgb(241,90,36);fill-rule:nonzero;"/>
    </g>
    <g transform="matrix(4.16667,0,0,4.16667,-4685.5,-3206.79)">
        <path d="M1252.12,817.674C1236.45,817.674 1220.79,817.668 1205.12,817.661C1191.55,817.656 1177.98,817.651 1164.41,817.65C1162.75,817.65 1161.41,816.306 1161.41,814.65C1161.41,812.992 1162.76,811.65 1164.41,811.65C1177.98,811.651 1191.55,811.656 1205.12,811.661C1231.1,811.673 1257.08,811.683 1283.05,811.664C1284.71,811.664 1286.05,813.006 1286.05,814.662C1286.06,816.319 1284.71,817.663 1283.06,817.664C1272.75,817.671 1262.43,817.674 1252.12,817.674" style="fill:rgb(0,114,206);fill-rule:nonzero;"/>
    </g>
    <g transform="matrix(4.16667,0,0,4.16667,-4685.5,-3206.9)">
        <path d="M1156.94,817.675L1155.7,817.675C1154.04,817.675 1152.7,816.332 1152.7,814.675C1152.7,813.018 1154.04,811.675 1155.7,811.675L1156.94,811.675C1158.6,811.675 1159.94,813.018 1159.94,814.675C1159.94,816.332 1158.6,817.675 1156.94,817.675" style="fill:rgb(0,114,206);fill-rule:nonzero;"/>
    </g>
    <g transform="matrix(4.16667,0,0,4.16667,-4685.5,-3206.85)">
        <path d="M1127.52,817.674C1125.86,817.674 1124.52,816.332 1124.52,814.676C1124.51,813.02 1125.86,811.675 1127.51,811.674C1134.87,811.668 1142.23,811.665 1149.58,811.665C1151.24,811.665 1152.58,813.008 1152.58,814.665C1152.58,816.322 1151.24,817.665 1149.58,817.665C1142.23,817.665 1134.87,817.668 1127.52,817.674Z" style="fill:rgb(0,114,206);fill-rule:nonzero;"/>
    </g>
</svg>
