<?xml version="1.0" encoding="UTF-8" standalone="no"?>
<!DOCTYPE svg PUBLIC "-//W3C//DTD SVG 1.1//EN" "http://www.w3.org/Graphics/SVG/1.1/DTD/svg11.dtd">
<svg width="100%" height="100%" viewBox="0 0 479 459" version="1.1" xmlns="http://www.w3.org/2000/svg" xmlns:xlink="http://www.w3.org/1999/xlink" xml:space="preserve" xmlns:serif="http://www.serif.com/" style="fill-rule:evenodd;clip-rule:evenodd;stroke-linejoin:round;stroke-miterlimit:2;">
    <g transform="matrix(4.16667,0,0,4.16667,-4795.71,-2259.24)">
        <path d="M1210.75,650.762C1209.55,650.762 1208.47,649.941 1208.21,648.71C1207.91,647.292 1208.81,645.912 1210.19,645.613C1221.9,643.076 1231.68,637.852 1238.47,630.613C1245.08,623.561 1248.58,614.904 1248.58,605.501C1248.58,605.315 1248.62,605.166 1248.62,605.016L1248.92,562.442C1248.92,560.987 1250.11,559.83 1251.53,559.83C1252.99,559.83 1254.14,561.024 1254.14,562.442L1253.88,605.315C1253.88,605.464 1253.88,605.613 1253.84,605.763C1253.73,616.397 1249.74,626.21 1242.31,634.158C1234.78,642.18 1224.07,647.927 1211.34,650.688C1211.12,650.725 1210.93,650.762 1210.75,650.762ZM1253.84,605.501L1253.84,605.501L1253.84,605.5L1253.84,605.5L1253.84,605.501Z" style="fill:rgb(241,90,36);fill-rule:nonzero;"/>
    </g>
    <g transform="matrix(4.16667,0,0,4.16667,-4795.71,-2683.06)">
        <path d="M1265.86,667.777C1261.16,659.792 1256.42,651.882 1251.72,643.934C1246.9,652.218 1242.05,660.24 1237.24,668.262C1246.75,668.374 1256.31,668.3 1265.86,667.777Z" style="fill:rgb(241,90,36);fill-rule:nonzero;"/>
    </g>
    <g transform="matrix(4.16667,0,0,4.16667,-4795.71,-1891.4)">
        <path d="M1197.65,563.897C1196.23,563.897 1195.04,562.741 1195.04,561.323C1195.04,559.867 1196.16,558.711 1197.61,558.673C1198.1,558.673 1198.36,558.636 1198.77,558.599C1199.14,558.561 1199.63,558.524 1200.37,558.487C1201.83,558.412 1203.06,559.532 1203.14,560.95C1203.21,562.405 1202.09,563.636 1200.67,563.711C1200.04,563.748 1199.63,563.785 1199.29,563.823C1198.84,563.86 1198.4,563.897 1197.65,563.897C1197.69,563.897 1197.69,563.897 1197.65,563.897Z" style="fill:rgb(241,90,36);fill-rule:nonzero;"/>
    </g>
    <g transform="matrix(4.16667,0,0,4.16667,-4795.71,-2253.33)">
        <path d="M1189.44,650.277C1189.33,650.277 1189.18,650.277 1189.07,650.24C1161.01,646.098 1150.9,621.882 1150.97,606.621L1150.97,593.001C1150.97,580.725 1151.01,563.934 1151.01,561.509C1151.01,560.054 1152.2,558.897 1153.62,558.897C1155.08,558.897 1156.23,560.091 1156.23,561.509C1156.23,563.897 1156.2,580.688 1156.2,592.964L1156.2,606.583C1156.16,620.016 1165.08,641.359 1189.85,645.016C1191.27,645.24 1192.28,646.546 1192.05,647.964C1191.83,649.344 1190.71,650.277 1189.44,650.277Z" style="fill:rgb(241,90,36);fill-rule:nonzero;"/>
    </g>
</svg>
